<svg width="138" height="24" viewBox="0 0 138 24" fill="none" xmlns="http://www.w3.org/2000/svg">
<path fill-rule="evenodd" clip-rule="evenodd" d="M10.7746 21.1624C8.35875 21.1624 6.49553 20.3877 5.23679 18.8599C3.96552 17.3178 3.32091 15.0068 3.32091 11.9919C3.32091 9.01843 3.96552 6.72869 5.23679 5.18617C6.49587 3.65837 8.36959 2.88372 10.8058 2.88372C13.2308 2.88372 15.083 3.65262 16.3113 5.16889C17.5524 6.70177 18.1816 8.99727 18.1816 11.9919C18.1816 15.0175 17.5497 17.3315 16.3037 18.8694C15.0702 20.3909 13.2102 21.1624 10.7746 21.1624ZM10.8058 0C7.37465 0 4.68514 1.06029 2.8121 3.15176C0.946002 5.23476 0 8.19857 0 11.9607C0 15.7534 0.943293 18.7379 2.80364 20.8312C4.67143 22.9335 7.35349 23.9995 10.7746 23.9995C14.1235 23.9995 16.7791 22.915 18.6683 20.776C20.5489 18.6463 21.5026 15.6909 21.5026 11.9919C21.5026 8.28256 20.5516 5.32721 18.6759 3.20747C16.7922 1.07909 14.1443 0 10.8058 0Z" fill="#4E4E4E"/>
<path fill-rule="evenodd" clip-rule="evenodd" d="M34.0284 5.75928C32.8198 5.75928 31.7058 6.00141 30.7178 6.47923C29.8679 6.89035 29.1708 7.45317 28.6404 8.15603L28.265 6.07134H25.6885V23.6878H28.7908V14.4582C28.7908 12.3048 29.1901 10.749 29.9776 9.83384C30.7551 8.92983 32.013 8.47148 33.7164 8.47148C34.9883 8.47148 35.9281 8.79031 36.5093 9.41934C37.096 10.0541 37.3934 11.0459 37.3934 12.3669V23.6878H40.4957V12.2733C40.4957 10.0262 39.944 8.35989 38.856 7.32043C37.771 6.28451 36.1468 5.75928 34.0284 5.75928Z" fill="#4E4E4E"/>
<path fill-rule="evenodd" clip-rule="evenodd" d="M52.0849 8.44015C53.3697 8.44015 54.3266 8.83654 55.0101 9.65182C55.6576 10.4243 56.0035 11.5448 56.0398 12.9851H47.6407C47.8095 11.5994 48.2625 10.4947 48.9887 9.69906C49.762 8.85194 50.7747 8.44015 52.0849 8.44015ZM52.1163 5.75928C49.7586 5.75928 47.8522 6.6091 46.4499 8.28556C45.0589 9.94831 44.3535 12.214 44.3535 15.02C44.3535 17.8116 45.115 20.0289 46.6167 21.6104C48.1214 23.1959 50.1977 24 52.7873 24C53.9546 24 54.9673 23.9114 55.7973 23.7369C56.6277 23.5623 57.5183 23.2711 58.4447 22.871L58.5991 22.8044V19.9385L58.2427 20.091C56.4834 20.8437 54.6795 21.2253 52.8809 21.2253C51.2153 21.2253 49.9107 20.7279 49.0033 19.7468C48.1304 18.8035 47.6451 17.4105 47.5591 15.6035H59.3326V13.7091C59.3326 11.3459 58.6809 9.41172 57.3955 7.96013C56.1021 6.49972 54.3259 5.75928 52.1163 5.75928Z" fill="#4E4E4E"/>
<path fill-rule="evenodd" clip-rule="evenodd" d="M60.772 3.22671H67.9978V23.6869H71.1626V3.22671H78.3884V0.358398H60.772V3.22671Z" fill="#4E4E4E"/>
<path fill-rule="evenodd" clip-rule="evenodd" d="M88.9796 5.75928C87.8613 5.75928 86.8206 6.07845 85.8868 6.70816C85.0993 7.23949 84.4025 7.96876 83.8104 8.88056L83.5473 6.07134H80.9204V23.6878H84.0229V14.2553C84.0229 12.6517 84.4977 11.2961 85.4344 10.2257C86.3753 9.15029 87.4737 8.62742 88.7922 8.62742C89.312 8.62742 89.9238 8.7043 90.6099 8.8555L90.8776 8.91476L91.3129 6.0009L91.0758 5.9518C90.4578 5.82396 89.7526 5.75928 88.9796 5.75928Z" fill="#4E4E4E"/>
<path fill-rule="evenodd" clip-rule="evenodd" d="M105.5 15.3164C105.5 17.46 105.103 19.0164 104.32 19.9422C103.547 20.8556 102.292 21.3187 100.59 21.3187C99.3182 21.3187 98.3782 20.9997 97.797 20.3708C97.2104 19.7364 96.9131 18.7446 96.9131 17.4232V6.07104H93.7793V17.5167C93.7793 19.7541 94.3286 21.4125 95.4114 22.4462C96.4906 23.477 98.1227 23.9997 100.262 23.9997C101.501 23.9997 102.622 23.7655 103.595 23.3038C104.435 22.9045 105.127 22.3463 105.657 21.6412L105.991 23.6875H108.602V6.07104H105.5V15.3164Z" fill="#4E4E4E"/>
<path fill-rule="evenodd" clip-rule="evenodd" d="M119.782 13.4694C118.324 12.9253 117.328 12.5054 116.821 12.2216C116.336 11.9504 115.983 11.6652 115.772 11.3738C115.569 11.0936 115.47 10.76 115.47 10.3537C115.47 9.76713 115.736 9.31775 116.284 8.97961C116.865 8.62167 117.755 8.44015 118.928 8.44015C120.282 8.44015 121.819 8.79082 123.497 9.48216L123.729 9.57766L124.853 7.00464L124.616 6.90339C122.834 6.14415 120.983 5.75928 119.116 5.75928C117.094 5.75928 115.474 6.18207 114.301 7.01599C113.101 7.86937 112.492 9.05005 112.492 10.5254C112.492 11.3478 112.669 12.0686 113.018 12.6674C113.365 13.2611 113.896 13.7965 114.597 14.2582C115.281 14.709 116.44 15.2401 118.04 15.8363C119.682 16.4687 120.795 17.0195 121.349 17.473C121.869 17.8993 122.121 18.3936 122.121 18.984C122.121 19.7786 121.805 20.3525 121.154 20.7382C120.469 21.1444 119.463 21.3503 118.163 21.3503C117.314 21.3503 116.419 21.2321 115.503 20.9989C114.584 20.7654 113.711 20.4414 112.91 20.0355L112.539 19.8475V22.8166L112.669 22.8899C113.971 23.6265 115.799 24 118.101 24C120.29 24 122.021 23.5476 123.246 22.6556C124.496 21.7451 125.13 20.4365 125.13 18.7656C125.13 17.5692 124.747 16.5593 123.991 15.7643C123.243 14.9792 121.866 14.2283 119.782 13.4694Z" fill="#4E4E4E"/>
<path fill-rule="evenodd" clip-rule="evenodd" d="M136.882 21.0481C136.643 21.1178 136.312 21.1864 135.899 21.2516C135.489 21.3169 135.056 21.3501 134.613 21.3501C133.829 21.3501 133.233 21.1078 132.791 20.6088C132.347 20.1085 132.122 19.3675 132.122 18.4065V8.59611H137.085V6.07118H132.122V2.10718H130.177L129.064 5.82837L126.569 6.92473V8.59611H129.02V18.5158C129.02 22.1547 130.775 23.9998 134.238 23.9998C134.685 23.9998 135.195 23.9541 135.754 23.8639C136.331 23.7702 136.76 23.6532 137.065 23.5063L137.21 23.4365V20.9527L136.882 21.0481Z" fill="#4E4E4E"/>
</svg>
