<?xml version="1.0" encoding="UTF-8"?><svg id="a" xmlns="http://www.w3.org/2000/svg" xmlns:xlink="http://www.w3.org/1999/xlink" viewBox="0 0 1440 620"><defs><style>.f{mask:url(#d);}.g,.h,.i,.j{fill:none;}.k,.l,.m,.n,.o,.p,.q,.r,.s,.t{isolation:isolate;}.k,.l,.q,.r,.s{fill-rule:evenodd;}.k,.l,.r{fill:#c5ebf5;}.k,.p{opacity:.45;}.l{opacity:.3;}.u,.t{opacity:.05;}.h{stroke-dasharray:0 0 2.9 3.5;}.h,.i,.j{stroke:#0055dc;stroke-width:.25px;}.v,.n,.t{fill:#0055dc;}.w{fill:#fff;}.x{fill:#f63;}.y{fill:#a9e1f0;}.m{opacity:.15;}.m,.o,.q,.s{fill:#6ecce5;}.n,.r{opacity:.6;}.o,.s{opacity:.59;}.p{fill:#003682;}.q{opacity:.54;}.i{stroke-dasharray:0 0 2.3 2.5;}.j{stroke-dasharray:0 0 2.5 3;}.a`{clip-path:url(#c);}.aa{clip-path:url(#b);}</style><clipPath id="b"><rect class="g" x="618.5" width="643" height="620"/></clipPath><clipPath id="c"><rect class="g" x="618.5" width="643" height="620"/></clipPath><mask id="d" x="618.5" y="-3" width="643" height="630" maskUnits="userSpaceOnUse"><g id="e"><path class="w" d="M1261.5,0H618.5V620h643V0Z"/></g></mask></defs><g class="aa"><g class="a`"><g class="f"><g><path class="q" d="M946.88,104.38c-115.22,0-208.62,93.4-208.62,208.62s93.4,208.62,208.62,208.62,208.62-93.4,208.62-208.62-93.4-208.62-208.62-208.62Zm-209.38,208.62c0-115.63,93.74-209.38,209.38-209.38s209.38,93.74,209.38,209.38-93.74,209.38-209.38,209.38-209.38-93.74-209.38-209.38Z"/><path class="w" d="M946.98,484.94c95.09,0,172.13-77.13,172.13-172.32s-77.04-172.31-172.13-172.31-172.13,77.13-172.13,172.31,77.04,172.32,172.13,172.32Z"/><path class="m" d="M946.98,484.94c95.09,0,172.13-77.13,172.13-172.32s-77.04-172.31-172.13-172.31-172.13,77.13-172.13,172.31,77.04,172.32,172.13,172.32Z"/><path class="w" d="M948.28,451.83c76.04,0,137.78-61.74,137.78-137.87s-61.65-137.96-137.78-137.96-137.78,61.74-137.78,137.87,61.74,137.96,137.78,137.96Z"/><path class="w" d="M947.28,450.83c76.04,0,137.78-61.74,137.78-137.87s-61.65-137.96-137.78-137.96-137.78,61.74-137.78,137.87,61.74,137.96,137.78,137.96Z"/><path class="w" d="M947.28,450.83c76.04,0,137.78-61.74,137.78-137.87s-61.65-137.96-137.78-137.96-137.78,61.74-137.78,137.87,61.74,137.96,137.78,137.96Z"/><path class="o" d="M809.47,318.12l5.95,2.47,6.69,8.7,16.03,3.02-5.86,11.08,6.69,22.72,13.28,8.7,4.3,20.25,8.06,14.75,6.14,5.04,8.52,.27-5.22-3.11-2.75-4.49,.92-7.51,6.96-7.15,2.01-9.53,9.53-9.71-1.01-10.26,2.93-11.18-6.32-4.76-11.82-.92-4.21-6.78-5.86-2.01-7.97-9.25h-16.4l-2.01,3.76-11.36-6.96-8.15-13.92,3.48-8.61,8.15,.73,8.06,4.49v-10.9l10.99-11.82,9.53-14.93,14.47-5.13-2.38-14.2-14.38-11.27-9.8,15.48-9.16-8.79,2.29-9.34,9.53-4.86,9.53,1.19,9.07,6.23,5.4-2.66-4.31-12.64,.82-7.88,8.34-3.39,5.68,6.05-2.2,15.3,7.42,5.13,9.89-11.18,10.17-4.12,14.29-13.19-9.8-9.62-16.86,1.47-15.11-5.68-14.84,3.21c-36.09,25.92-57.53,67.61-57.53,112.13,.09,1.92,.09,3.76,.18,5.59Z"/><path class="s" d="M1077.24,357.97c20.43-58.9-1.1-124.13-52.58-159.31l-8.89,2.84-10.77,3-18,16.5-5.85-6.03,10.85-4.95-5-5.52-13.55-5.84-15.28,5.84-5.88,10.47-13.29,8.03,2.48,9,5.59-3,5.22,6.5,4.71-3.5,8.85-11v11l-14.85,11-2-5-2,2.5,.07,6v14.09l-7.33,2.29-7.33,2.29-10.54,12.55-2.29,13.37,11.36,5.04-11.36,9.43-5.5,17.5,9.99,14.84,17.4,2.66,10.81,8.52v11.18l5.68,13.28-1.56,16.95,9.44,16.31,15.3-10.72,13.65-22.54v-16.95l13.65-17.31-6.14-4.95,13.47-5.68,7.69-16.67,13.19,7.79,5.22,14.57,7.24,9.71,4.03-9.71-3.02-7.97,1.47-7.51,9.34-5.5,9.07,8.98-1.01,11.91,5.68,9.71-1.1,10.81,3.3,2.93,.37,.27Zm-146.11-61.93l12.46-13.1,8.91-.44,2.5,5,4,2,.5,2-1.5,3.5,4-1,1-3.33-5-6.17,2.72,1,5.78,6.5,1,2,3.5,2.04,3.5-2.45,8.48,2.45v9.44l-9.53-1.65h-12.73l-10.35-10.17-19.24,2.38Z"/><path class="o" d="M924.99,229.35h-11.82l6.51,5.68,5.31-5.68Z"/><path class="o" d="M1007.53,363.01l-1.19,4.58-4.12,3.48-3.66,7.05,3.02,4.4,5.95-8.24,2.29-7.42-2.29-3.85Z"/><path class="y" d="M933.68,245.88l-1.9-2.57-3.72,.92-.15,3.23-2.54,.51,1.58,2.73,4.28-1.01,.82-2.78,1.63-1.03Z"/><path class="y" d="M935.05,244.23l-.71-3.73,1.66-2.49,2.96-.14,1.54,2.63-.95,3.29,.95,3.67-.37,2.16,1.86,1.8-1.62,4.23h-4.19l-5.34,.85,1.01-4.37,4.15-3.24-.95-4.66Z"/><g class="u"><path class="t" d="M840.54,334.4l-16.31-3.11-6.69-8.7-5.96-2.47v-.09c-.09-1.83-.09-3.76-.09-5.59,0-44.52,21.44-86.29,57.53-112.22l.09-.09v.09l14.75-3.21,15.11,5.68,16.86-1.47h.09l9.89,9.8-.09,.09-14.38,13.28-10.08,4.12-9.99,11.18-7.6-5.22v-.09l2.2-15.21-5.59-5.95-8.15,3.3-.82,7.69,4.3,12.73-5.59,2.75-.09-.09-9.07-6.23-9.44-1.19-9.44,4.76-2.29,9.16,8.98,8.61,9.8-15.39,.09,.09,14.38,11.27,2.47,14.38-14.57,5.13-9.44,14.93-10.9,11.82v11.08l-8.24-4.67-8.06-.73-3.39,8.43,8.06,13.92,11.54,7.05,.09,.37Zm-16.12-3.39l15.48,2.93-10.99-6.78-8.15-14.02,3.48-8.8,8.34,.73,7.88,4.4v-10.72l10.99-11.82,9.53-15.02,14.38-5.04-2.38-14.02-14.2-11.18-9.8,15.48-9.34-8.98v-.09l2.29-9.34h.09l9.53-4.85,9.62,1.19,8.98,6.23,5.22-2.57-4.21-12.55,.82-7.97,8.52-3.39,5.86,6.23v.09l-2.2,15.21,7.24,5.04,9.89-11.08,10.17-4.12,14.2-13.1-9.71-9.53-16.76,1.47-15.12-5.68-14.75,3.21c-36.09,25.83-57.44,67.61-57.44,111.95,0,1.83,0,3.66,.09,5.4l5.86,2.47,6.6,8.61Z"/><path class="t" d="M968.15,408.69l-.09-.09-9.44-16.31,1.56-16.95-5.68-13.28v-11.08l-10.81-8.61-17.5-2.66v-.09l-10.08-14.93v-.09l5.59-17.59,11.18-9.34-11.27-4.95v-.09l2.29-13.37,10.63-12.64,14.57-4.58v-16.12h.09l20.98-13.1h.09l20.34,3.3,16.95-19.6,10.44-4.95,8.7-11.45,.09,.09c51.48,35.18,73.1,100.59,52.67,159.49l-.09,.18-.46-.37-3.39-2.93v-.09l1.01-10.72-5.68-9.71,1.01-11.82-8.98-8.89-9.25,5.4-1.47,7.42,3.12,7.97v.09l-4.12,9.98-7.33-9.98-5.13-14.47-13.01-7.7-7.6,16.58h-.09l-13.28,5.59,6.05,4.86-.09,.09-13.65,17.22v16.95l-13.65,22.63-15.21,10.72Zm-9.25-16.49l9.34,16.12,15.21-10.63,13.65-22.54v-16.95l13.56-17.22-6.14-4.95,.18-.09,13.47-5.68,7.7-16.76,.09,.09,13.19,7.79v.09l5.22,14.57,7.05,9.53,3.94-9.44-3.02-7.97,1.47-7.6h.09l9.43-5.5,.09,.09,9.07,9.07-1.01,12,5.68,9.71-1.01,10.72,3.39,2.93c20.24-58.72-1.19-123.76-52.49-158.94l-8.61,11.27-10.53,4.95-17.04,19.7h-.09l-20.34-3.3-20.98,12.92v16.12l-14.66,4.58-10.53,12.55-2.29,13.19,11.18,4.95,12.46-13.01,17.22,1.56,9.8,7.97,12.46,3.57v9.71l-9.71-1.74h-12.73l-10.26-10.08-19.24,2.38-11.36,9.43-5.5,17.41,9.89,14.75,17.4,2.66,10.9,8.61v11.18l5.68,13.28-1.28,16.95Zm4.03-86.84h12.64l9.43,1.65v-9.16l-12.37-3.57-9.8-7.97-17.04-1.56-12.18,12.83,18.96-2.29,10.35,10.08Z"/><path class="t" d="M881.4,417.21l-8.52-.27h-.09l-6.14-5.13-8.06-14.75-4.3-20.25-13.19-8.7v-.09l-6.69-22.72v-.09l7.88-15.02,.09-.09h16.4l.09,.09,7.97,9.16,5.77,2.02,.09,.09,4.12,6.69,11.82,.92h.09l6.32,4.76,.09,.18-2.93,11.18,1.01,10.26v.09l-9.53,9.71-2.02,9.53v.09l-6.87,7.15-.92,7.42,2.66,4.4,5.13,3.11-.27,.27Zm-8.43-.55l7.97,.27-4.76-2.84-2.75-4.49v-.09l.92-7.51v-.09l6.87-7.14,2.02-9.53v-.09l9.53-9.62-1.01-10.26,2.93-11.09-6.14-4.67-11.82-.92-.09-.09-4.12-6.69-5.77-2.01h-.09l-7.88-9.16h-16.21l-7.79,14.84,6.69,22.63,13.19,8.7,.09,.09,4.31,20.24,8.06,14.66,5.86,4.86Z"/><path class="t" d="M921.89,237.02l-.09-.09-6.78-5.96h12.46l-5.59,6.05Zm-6.14-5.77l6.14,5.31,5.04-5.31h-11.18Z"/></g><path class="v" d="M864.9,410l-.18-.18,1.1-1.46,.18,.18-1.1,1.47Zm2.84-3.67l-.18-.18,1.1-1.47,.18,.18-1.1,1.46Zm2.84-3.57l-.18-.18,1.1-1.46,.18,.18-1.1,1.47Zm1.83-2.47l-1.74-.55,.09-.27,1.56,.46-.28-1.56,.28-.09,.37,1.83h-.09l-.18,.18Zm-4.4-1.37l-1.74-.55,.09-.27,1.74,.55-.09,.27Zm-4.31-1.37l-1.74-.55,.09-.27,1.74,.55-.09,.28Zm-4.4-1.37l-1.74-.55,.09-.27,1.74,.55-.09,.27Zm12.18-.46l-.37-1.83,.28-.09,.37,1.83-.27,.09Zm-13.38-1.83l-.18-.18,1.19-1.37,.18,.18-1.19,1.38Zm21.16-.83l-1.19-1.37,.18-.18,1.19,1.37-.18,.18Zm-8.61-1.83l-.37-1.83,.27-.09,.37,1.83-.27,.09Zm-9.62-.83l-.18-.18,1.19-1.37,.18,.18-1.19,1.37Zm15.21-.73l-1.19-1.37,.18-.18,1.19,1.37-.18,.18Zm-12.18-2.75l-.18-.18,1.19-1.37,.18,.18-1.19,1.37Zm5.77-.18l-.37-1.83,.27-.09,.37,1.83-.28,.09Zm3.39-.55l-1.19-1.38,.18-.18,1.19,1.37-.18,.18Zm8.15-2.57l-1.83-.37,.09-.27,1.83,.37-.09,.27Zm-4.49-.92l-1.83-.37,.09-.28,1.83,.37-.09,.27Zm-13.01-3.48l-1.74-.64,.09-.27,1.74,.64-.09,.27Zm7.7-1.19l-.18-.18,1.19-1.37,.18,.18-1.19,1.37Zm-2.38-.27h-.27l.09-1.83h.28l-.09,1.83Zm-9.62-.09l-1.74-.64,.09-.27,1.74,.64-.09,.27Zm-4.31-1.56l-1.74-.64,.09-.27,1.74,.64-.09,.27Zm10.72-.18l-.92-1.56,.27-.09,.92,1.56-.27,.09Zm8.52-1.46l-.18-.18,1.19-1.37,.18,.18-1.19,1.37Zm16.21-.92v.09l-.09,.18-1.01-.46,.09-.27,1.01,.46Zm-37.83-.09l-.27-.09,.37-1.83,.28,.09-.37,1.83Zm16.49-.27h-.28l.09-1.83h.28l-.09,1.83Zm17.77-1.01l-1.65-.73,.09-.28,1.65,.73-.09,.27Zm-23.45-.27l-.92-1.56,.28-.09,.92,1.56-.28,.09Zm25.47-.82l-.92-1.56,.27-.18,.92,1.56-.28,.18Zm-11.73-.09l-.18-.18,1.19-1.37,.18,.18-1.19,1.38Zm5.5-.64l-1.65-.73,.09-.27,1.65,.73-.09,.27Zm-28.95-1.28l-.27-.09,.37-1.83,.27,.09-.37,1.83Zm15.57-.46h-.27l.09-1.83h.27l-.09,1.83Zm9.16-.09l-1.65-.73,.09-.27,1.65,.73-.09,.27Zm-17.22-.55l-.92-1.56,.27-.09,.92,1.56-.27,.09Zm18.87-.46l-.18-.18,1.19-1.37,.18,.18-1.19,1.37Zm6.5-.37l-.92-1.56,.27-.18,.92,1.56-.27,.18Zm-12.28-.55l-1.65-.73,.09-.27,1.65,.73-.09,.27Zm-35.27-.27l-.09-.27,1.65-.73,.09,.27-1.65,.73Zm31.06-1.56l-1.65-.73,.09-.27,.64,.27,.09-1.83h.27l-.09,1.83h-.27l1.01,.46-.09,.27Zm-15.39-.18l-.28-.09,.37-1.83,.27,.09-.37,1.83Zm-11.54-.18l-.09-.27,1.65-.73,.09,.27-1.65,.73Zm39.85-.46l-.18-.18,1.01-1.19-.55-.92,.27-.18,.92,1.65-.27,.18-.18-.37-1.01,1.01Zm-24.09,0l-.92-1.56,.28-.09,.92,1.56-.28,.09Zm7.05-1.1l-1.65-.73,.09-.27,1.65,.73-.09,.27Zm-18.69-.37l-.09-.28,1.65-.73,.09,.28-1.65,.73Zm14.47-1.47l-1.65-.73,.09-.27,1.65,.73-.09,.28Zm-10.35-.46l-.09-.27,1.65-.73,.09,.27-1.65,.73Zm34.54-.09l-.18-.18,1.19-1.37,.18,.18-1.19,1.37Zm-16.31-1.01h-.27l.09-1.83h.27l-.09,1.83Zm12.18-.18l-.92-1.56,.28-.18,.92,1.56-.27,.18Zm-21.35-1.56v-.27l1.83-.27v.27l-1.83,.27Zm4.49-.73v-.28l1.83-.27v.27l-1.83,.28Zm23.91,0l-.18-.18,1.19-1.37,.18,.18-1.19,1.38Zm-19.33-.73v-.28l1.83-.27v.27l-1.83,.28Zm-17.59-.28l-1.56-1.01,.18-.27,1.56,1.01-.18,.27Zm22.08-.46v-.28l1.83-.27v.27l-1.83,.28Zm5.5-.18l-.46-.73-.55,.09v-.27l.46-.09-.37-.64,.27-.18,.46,.73,1.1-.18v.27l-1.01,.18,.37,.64-.27,.18Zm-9.71-.46h-.28l.09-1.83h.27l-.09,1.83Zm-10.99-.09l-.18-.18,1.1-1.47,.18,.18-1.1,1.47Zm-5.13-.46l-.82-1.65,.27-.09,.82,1.65-.28,.09Zm29.41-.37v-.27l1.83-.27v.27l-1.83,.27Zm-26.93-.27h-.27v-1.83h.27v1.83Zm-8.06-.09l-1.56-1.01,.18-.27,1.56,1.01-.18,.27Zm43.7-.18l-.18-.18,.64-.73-.18,.55-.28,.37Zm-4.21-.18v-.27l1.83-.27v.27l-1.83,.27Zm-10.44-1.83l-.92-1.56,.27-.18,.92,1.56-.27,.18Zm-32.98-.27l-1.56-1.01,.18-.28,1.56,1.01-.18,.27Zm17.5,0l-.18-.18,1.1-1.46,.18,.18-1.1,1.47Zm8.34-.83h-.28l.09-1.83h.27l-.09,1.83Zm-18.51,0l-.82-1.65,.27-.09,.83,1.65-.28,.09Zm4.76-1.19h-.28v-1.83h.28v1.83Zm-15.94-.37l-1.56-1.01,.18-.27,1.56,1.01-.18,.27Zm24.18-1.19l-.18-.18,1.1-1.47,.18,.18-1.1,1.47Zm10.35-.09l-.46-.82,.27-.18,.46,.82-.27,.18Zm-38.48-1.19l-1.56-1.01,.18-.27,1.56,1.01-.18,.27Zm12.92-.09l-.82-1.65,.27-.09,.82,1.65-.28,.09Zm20.89-.46h-.28l.09-1.83h.27l-.09,1.83Zm-13.83-1.19h-.27v-1.83h.27v1.83Zm10.9-.64l-.18-.18,1.1-1.46,.18,.18-1.1,1.47Zm-34.72,0l-.37-.27,.09-.28,1.37-.27,.09,.27-1.01,.18,.09,.09-.27,.27Zm3.76-.92l-.09-.27,1.83-.37,.09,.27-1.83,.37Zm10.9-.82l-.55-1.1-1.28,.18-.09-.27,1.19-.18-.18-.27,.28-.09,.18,.37,.37-.09,.09,.27h-.27l.55,1.01-.28,.18Zm-6.32,0l-.09-.28,1.83-.37,.09,.28-1.83,.37Zm29.22-2.2l.27,.37v.82h-.27v-1.19Zm-20.25,.55l-.09-.27,1.83-.37,.09,.27-1.83,.37Zm6.6-.55h-.28v-.55l-1.74,.27-.09-.27,1.83-.37v-1.01h.28v1.92Zm2.38-1.1l-.09-.27,1.83-.37,.09,.27-1.83,.37Zm-13.74-.73l-.82-1.65,.27-.09,.82,1.65-.27,.09Zm18.32,0l-.09-.27,1.1-.18,.09,.27-1.1,.18Zm-6.87-2.75h-.27v-1.83h.27v1.83Zm-13.65-1.28l-.83-1.65,.28-.09,.82,1.65-.27,.09Zm13.65-3.3h-.27v-1.83h.27v1.83Zm-15.76-.73l-.73-1.47,.28-.09,.73,1.47-.28,.09Z"/><path class="v" d="M966.4,406.8h-.27l.27-1.83h.27l-.27,1.83Zm.73-4.58h-.27l.27-1.83h.27l-.27,1.83Zm.73-4.49h-.27l.27-1.83h.27l-.27,1.83Zm13.56-1.65l-.18-.18,.09-.09-.27-1.28,.27-.09,.37,1.47-.27,.18Zm-2.2-2.11l-1.28-1.28,.18-.18,1.28,1.28-.18,.18Zm-10.63-.73h-.27l.27-1.83h.27l-.27,1.83Zm11.82-1.37l-.37-1.83,.28-.09,.37,1.83-.28,.09Zm-4.49-1.1l-1.28-1.28,.18-.18,1.28,1.28-.18,.18Zm-19.06-.18l-.09-.27,1.74-.64,.09,.27-1.74,.64Zm4.31-1.65l-.09-.27,1.74-.64,.09,.27-1.74,.64Zm8.15-.27h-.27l.27-1.83h.27l-.27,1.83Zm3.39-1.01l-1.28-1.28,.18-.18,1.28,1.28-.18,.18Zm6.69-.27l-.37-1.83,.27-.09,.37,1.83-.27,.09Zm-14.02-.09l-.09-.27,1.74-.64,.09,.28-1.74,.64Zm4.3-1.56l-.09-.27,1.74-.64,.09,.27-1.74,.64Zm-.27-1.28l-1.28-1.28,.18-.18,1.28,1.28-.18,.18Zm.64-.27h-.27l.27-1.83h.27l-.27,1.83Zm3.94-.09l-.09-.28,1.74-.64,.09,.27-1.74,.64Zm4.4-1.1l-.09-.46-.09-.27-.27-1.1,.27-.09,.28,1.01,1.37-.55,.09,.27-1.46,.55,.09,.46-.18,.18Zm-12.28-1.74l-1.28-1.28,.18-.18,1.28,1.28-.18,.18Zm16.49-.37l-.09-.27,1.74-.64,.09,.27-1.74,.64Zm-11.82-1.19h-.27l.27-1.83h.27l-.27,1.83Zm16.03-.46l-.09-.27,1.74-.64,.09,.27-1.74,.64Zm-9.44-.73l-.37-1.83,.27-.09,.37,1.83-.27,.09Zm-14.57-.46l-1.28-1.28,.18-.18,1.28,1.28-.18,.18Zm28.31-.37l-.09-.27,1.83-.64-.27,.37-1.46,.55Zm-.37-2.38l-1.47-1.1,.18-.18,1.46,1.1-.18,.18Zm-19.24-.18h-.27l.27-1.83h.27l-.27,1.83Zm-12-.28l-1.28-1.28,.18-.18,1.28,1.28-.18,.18Zm16.86-.82l-.37-1.83,.27-.09,.37,1.83-.27,.09Zm10.81-1.56l-1.46-1.1,.18-.18,1.47,1.1-.18,.18Zm-14.84-1.83h-.28l.28-1.83h.27l-.27,1.83Zm11.27-1.01l-1.47-1.1,.18-.18,1.47,1.1-.18,.18Zm-8.34-.09l-.37-1.83,.28-.09,.37,1.74-.27,.18Zm4.76-2.75l-1.47-1.1,.18-.18,1.47,1.1-.18,.18Zm-6.96-.64h-.28l.28-1.83h.27l-.27,1.83Zm-4.95-4.76l-1.83-.09v-.27l1.83,.09v.27Zm-4.58-.27l-1.83-.09v-.27l1.83,.09v.27Zm-4.58-.27l-1.83-.09v-.27l1.83,.09v.27Zm-4.58-.37l-1.83-.09v-.27l1.83,.09v.27Zm18.23-.09l-1.01-1.56,.18-.18,1.01,1.56-.18,.18Zm3.85-.37l-.18-.27,1.56-1.01,.18,.27-1.56,1.01Zm-1.47-1.01l-.27-.09,.82-1.65,.27,.09-.83,1.65Zm5.31-1.47l-.18-.27,1.56-1.01,.18,.27-1.56,1.01Zm14.75-.92l-1.47-1.1,.18-.18,1.47,1.1-.18,.18Zm-24.92,0l-1.01-1.56,.18-.18,1.01,1.56-.18,.18Zm14.02-1.56l-.18-.27,1.56-1.01,.18,.27-1.56,1.01Zm-7.14-.18l-.28-.09,.82-1.65,.27,.09-.82,1.65Zm14.47-1.1l-1.47-1.1,.18-.18,1.47,1.1-.18,.18Zm-23.91-1.01l-1.01-1.56,.18-.18,1.01,1.56-.18,.18Zm20.43-.18l-.18-.27,1.56-1.01,.18,.28-1.56,1.01Zm-.18-1.56l-1.47-1.1,.18-.18,1.47,1.1-.18,.18Zm-8.89-.27l-.27-.09,.82-1.65,.27,.09-.82,1.65Zm12.92-.64l-.18-.28,1.56-1.01,.18,.28-1.56,1.01Zm-39.21-.92l-.18-.18,.92-1.28,.18,.18-.73,1.01,.09,.09-.27,.18Zm12.37-.27l-1.01-1.56,.18-.18,1.01,1.56-.18,.18Zm19.15-.73l-1.46-1.1,.18-.18,1.47,1.1-.18,.18Zm11.63-.46l-.18-.27,1.56-1.01,.18,.27-1.56,1.01Zm-40.49-.18l-.18-.27,1.56-1.01,.18,.28-1.56,1.01Zm25.65-.92l-.27-.09,.82-1.65,.27,.09-.82,1.65Zm-25.74-1.01l-.18-.18,1.01-1.47,.18,.18-1.01,1.47Zm25.38-.18l-1.47-1.1,.18-.18,1.47,1.1-.18,.18Zm19.05-.18l-.18-.27,1.56-1.01,.18,.27-1.56,1.01Zm-37.19-.09l-1.01-1.56,.18-.18,1.01,1.56-.18,.18Zm-3.3-.09l-.18-.27,1.56-1.01,.18,.27-1.56,1.01Zm115.98-1.01l-.28-.09,.37-1.83,.28,.09-.37,1.83Zm-71.64-1.28l-.18-.27,1.56-1.01,.18,.28-1.56,1.01Zm-26.57-.18l-1.46-1.1,.18-.18,1.47,1.1-.18,.18Zm-13.92,0l-.18-.27,1.56-1.01,.18,.27-1.56,1.01Zm19.97-.09l-.27-.09,.82-1.65,.27,.09-.83,1.65Zm-25.19-.64l-.18-.18,1.01-1.47,.18,.18-1.01,1.46Zm2.2-.55l-1.01-1.56,.18-.18,1.01,1.56-.18,.18Zm-18.05-.83h-.28l.18-1.83h.27l-.18,1.83Zm65.41-.18l-.18-.27,1.28-.73-.46,.64-.64,.37Zm-40.49-.18l-.18-.27,1.56-1.01,.18,.27-1.56,1.01Zm6.51-.27l-1.47-1.1,.18-.18,1.47,1.1-.18,.18Zm102.6-.27l-.27-.09,.37-1.83,.27,.09-.37,1.83Zm-91.06-1.19l-.27-.09,.82-1.65,.28,.09-.83,1.65Zm-24.46-.27l-.18-.18,1.01-1.47,.18,.18-1.01,1.46Zm-36.18-.27l-.09-.64h.27l.09,.64h-.27Zm46.45-.18l-.18-.27,1.56-1.01,.18,.27-1.56,1.01Zm-13.28-.09l-1.01-1.56,.18-.18,1.01,1.56-.18,.18Zm12.27-.55l-1.47-1.1,.18-.18,1.47,1.1-.18,.18Zm-27.3-1.1h-.27l.18-1.83h.27l-.18,1.83Zm32.15-.73l-.18-.27,1.56-1.01,.18,.27-1.56,1.01Zm102.23-.09l-.27-.09,.37-1.83,.27,.09-.37,1.83Zm-152.98-.64l-.28-1.83h.28l.27,1.83h-.27Zm129.72,0h-1.83v-.27h1.83v.27Zm-4.58,0h-1.83v-.27h1.83v.27Zm-4.58,0h-1.83v-.27h1.83v.27Zm25.01-.09l-.18-.18,1.46-1.1,.18,.18-1.47,1.1Zm-66.69,0l-1.01-.82,.18-.18,.55,.55,.27-.09,.18,.46-.18,.09Zm-39.58,0l-.18-.18,1.01-1.47,.18,.18-1.01,1.46Zm2.93-.09l-1.47-1.1,.18-.18,1.47,1.1-.18,.18Zm20.89,0l-.27-.09,.82-1.65,.27,.09-.82,1.65Zm-32.06-.55l-1.01-1.56,.18-.18,1.01,1.56-.18,.18Zm23.64-1.01l-.18-.27,1.56-1.01,.18,.27-1.56,1.01Zm65.68-.09l-.18-.18,1.28-1.28,.18,.18-1.28,1.28Zm-44.52-.92l-1.37-1.19,.18-.18,1.37,1.19-.18,.18Zm73.38-.09l-.18-.18,1.47-1.1,.18,.18-1.47,1.1Zm-110.57-.18l-1.47-1.1,.18-.18,1.47,1.1-.18,.18Zm-19.7-.09h-.27l.18-1.83h.27l-.18,1.83Zm58.81-.09l-.64-1.74,.27-.09,.64,1.74-.27,.09Zm-35.91-.64l-.18-.18,1.01-1.46,.18,.18-1.01,1.46Zm112.04,0l-.28-.09,.37-1.83,.27,.09-.37,1.83Zm-95.36-.27l-.18-.27,1.56-1.01,.18,.27-1.56,1.01Zm6.5-.18l-.27-.09,.83-1.65,.27,.09-.83,1.65Zm-65.68-.18l-.28-1.83h.28l.27,1.83h-.27Zm29.13,0l-1.01-1.56,.18-.18,1.01,1.56-.18,.18Zm95.09-.55l-.18-.18,1.28-1.28,.18,.18-1.28,1.28Zm29.31-.55l-.18-.18,1.47-1.1,.18,.18-1.47,1.1Zm-117.9-.18l-1.47-1.1,.18-.18,1.47,1.1-.18,.18Zm37.38-.09l-1.37-1.19,.18-.18,1.37,1.19-.18,.18Zm19.88-.09l-.73-1.65,.27-.09,.73,1.65-.27,.09Zm-29.86-.64l-.18-.27,1.56-1.01,.18,.27-1.56,1.01Zm27.76-.46l-1.56-.92,.18-.27,1.56,.92-.18,.27Zm-13.93-.46l-.64-1.74,.27-.09,.64,1.74-.27,.09Zm-31.7-.09l-.18-.18,1.01-1.47,.18,.18-1.01,1.47Zm-25.19,0h-.27l.18-1.83h.27l-.18,1.83Zm137.23-.73l-.18-.18,1.46-1.1,.18,.18-1.47,1.1Zm-130.54,0l-1.01-1.56,.18-.18,1.01,1.56-.18,.18Zm128.71-.09l-.27-.09,.37-1.83,.27,.09-.37,1.83Zm-123.3-.18l-1.47-1.1,.18-.18,1.47,1.1-.18,.18Zm-32.7-.46l-.27-1.83h.27l.27,1.83h-.27Zm87.49-.37l-1.56-.92,.18-.28,1.56,.92-.18,.27Zm4.12-.64l-.73-1.65,.27-.09,.73,1.65-.27,.09Zm-27.21-.64l-1.83-.28v-.27l1.83,.27v.28Zm97.1-.37l-.18-.18,.18-.09,.18,.18-.18,.09Zm-113.04-.27l-.18-.18,1.01-1.46,.18,.18-1.01,1.47Zm-19.42,0l-1.47-1.1,.18-.18,1.47,1.1-.18,.18Zm30.87-.09l-1.83-.28v-.27l1.83,.27v.28Zm-67.33-.09l-.09-.27,1.83-.37,.09,.27-1.83,.37Zm90.97-.27l-1.56-.92,.18-.27,1.56,.92-.18,.27Zm-7.51-.09l-.64-1.74,.27-.09,.64,1.74-.27,.09Zm71.91-.09l-.28-.09,.83-1.65,.27,.09-.82,1.65Zm-123.21-.18l-1.01-1.56,.18-.18,1.01,1.56-.18,.18Zm30.69,0l-1.83-.28v-.27l1.83,.27v.28Zm-34.45,0h-.27l.18-1.83h.27l-.18,1.83Zm-23.91-.28l-.09-.27,1.83-.37,.09,.27-1.83,.37Zm-3.48-.27l-.18-.18,1.47-1.19,.18,.18-1.47,1.19Zm57.26-.09l-1.83-.27v-.27l1.83,.27v.27Zm105.99-.09l-.27-.09,.37-1.83,.27,.09-.37,1.83Zm-155.28-.46l-.09-.27,1.83-.37,.09,.27-1.83,.37Zm44.8-.18l-1.83-.27v-.27l1.83,.27v.27Zm-46.9,0l-.27-1.83h.27l.27,1.83h-.27Zm80.16-.55l-1.56-.92,.18-.28,1.56,.92-.18,.27Zm-54.23-.09l-1.46-1.1,.18-.18,1.47,1.1-.18,.18Zm64.31,0l-.73-1.65,.27-.09,.73,1.65-.27,.09Zm-47.91-.09l-1.83-.27v-.27l1.83,.27v.27Zm-35.73,0l-.09-.27,1.83-.37,.09,.27-1.83,.37Zm61.65-.27l-.46-1.74,.27-.09,.46,1.74-.28,.09Zm48.92-.18v-.27l1.83-.09v.27l-1.83,.09Zm-79.33-.18l-1.83-.27v-.27l1.83,.27v.27Zm83.91-.09v-.28l1.83-.09v.28l-1.83,.09Zm-70.17-.09l-.18-.18,1.01-1.46,.18,.18-1.01,1.47Zm-40.49-.09l-.09-.27,1.83-.37,.09,.27-1.83,.37Zm115.15-.09v-.27l1.83-.09v.27l-1.83,.09Zm-10.81-.09l-.27-.09,.46-1.74,.28,.09-.46,1.74Zm-117.72-.18l-.18-.27,1.47-1.19,.18,.18-1.47,1.28Zm35.64-.09l-1.83-.27v-.27l1.83,.27v.27Zm117.26-.46l-.27-.09,.82-1.65,.27,.09-.82,1.65Zm-135.03,0l-.09-.27,1.83-.37,.09,.27-1.83,.37Zm59.54-.09l-.46-1.28-1.65-.73,.09-.27,1.65,.73,1.56,.92-.18,.27-1.28-.73,.37,.92-.09,.18Zm-46.35-.09l-1.83-.27v-.27l1.83,.27v.27Zm100.86-.27l-.28-1.83,.28-.09,.27,1.83-.27,.09Zm28.67-.82l-.28-.09,.37-1.83,.27,.09-.37,1.83Zm-158.94-.73l-.28-1.83h.28l.27,1.83h-.27Zm88.95-.27l-.73-1.65,.27-.09,.73,1.65-.27,.09Zm-87.03-.09l-.18-.18,1.46-1.19,.18,.18-1.47,1.19Zm23.64-.27l-.09-.27,1.65-.73,.09,.27-1.65,.73Zm29.31-.09l-.18-.18,1.01-1.47,.18,.18-1.01,1.47Zm12.92-.18l-.46-1.74,.27-.09,.46,1.74-.28,.09Zm3.39-.27l-1.65-.73,.09-.27,1.65,.73-.09,.27Zm45.99-.46l-.27-.09,.46-1.74,.28,.09-.46,1.74Zm36.18-.37l-.27-.09,.82-1.65,.28,.09-.83,1.65Zm-129.9-.09l-.27-.09,.55-1.74,.27,.09-.55,1.74Zm6.32-.37l-.09-.27,1.65-.73,.09,.27-1.65,.73Zm37.74-.37l-.18-.18,1.28-1.28,.18,.18-1.28,1.28Zm72.28-.09l-.82-1.65,.27-.09,.83,1.65-.28,.09Zm-10.26,0l-.27-1.83,.27-.09,.27,1.83-.27,.09Zm-124.13-.27l-.18-.18,1.46-1.19,.18,.18-1.47,1.19Zm14.57-.09l-.92-1.56,.27-.18,.92,1.56-.28,.18Zm139.79-.46l-.27-.09,.37-1.83,.27,.09-.37,1.83Zm-125.87-.55l-.09-.27,1.65-.73,.09,.27-1.65,.73Zm53.22-.09l-.73-1.65,.27-.09,.73,1.65-.27,.09Zm-29.59-.09l-.18-.18,1.01-1.47,.18,.18-1.01,1.47Zm-58.17,0l-.27-1.83h.27l.28,1.83h-.28Zm102.05-.46l-1.56-.92,.18-.27,1.56,.92-.18,.28Zm2.2-.46l-.18-.18,1.19-1.47,.18,.18-1.19,1.47Zm51.85-.64l-.27-.09,.83-1.65,.27,.09-.83,1.65Zm-37.1-.09l-.28-.09,.46-1.74,.27,.09-.46,1.74Zm-109.38,0l-.18-.18,1.47-1.19,.18,.18-1.46,1.19Zm61.74,0l-.18-.18,1.28-1.28,.18,.18-1.28,1.28Zm-32.61,0l-.09-.27,1.65-.73,.09,.27-1.65,.73Zm-13.38-.37l-.27-.09,.55-1.74,.27,.09-.55,1.74Zm112.95-.46l-.82-1.65,.27-.09,.82,1.65-.27,.09Zm-120.01-.27l-.92-1.56,.28-.18,.92,1.56-.27,.18Zm79.79,0l-1.56-.92,.18-.27,1.56,.92-.18,.27Zm31.24-.18l-.27-1.83,.27-.09,.27,1.83-.27,.09Zm-86.39-.55l-.09-.27,1.65-.73,.09,.27-1.65,.73Zm17.77-.18l-.18-.18,1.01-1.46,.18,.18-1.01,1.47Zm100.49-.09l-.27-.09,.37-1.83,.27,.09-.37,1.83Zm-75.39-.37l-.73-1.65,.27-.09,.73,1.65-.27,.09Zm21.25-.37l-.18-.18,1.19-1.47,.18,.18-1.19,1.47Zm-93.9,0l-.18-.18,1.47-1.19,.18,.18-1.47,1.19Zm-13.83-.09l-.27-1.83h.27l.27,1.83h-.27Zm75.21-.27l-.18-.18,1.28-1.28,.18,.18-1.28,1.28Zm19.6-.27l-1.56-.92,.18-.27,1.56,.92-.18,.28Zm-46.99-.28l-.09-.27,1.65-.73,.09,.27-1.65,.73Zm111.03-.27l-.27-.09,.83-1.65,.27,.09-.83,1.65Zm-38.11-.37l-.28-.09,.46-1.74,.27,.09-.46,1.74Zm-93.44-.37l-.28-.09,.55-1.74,.27,.09-.55,1.74Zm109.56-.09l-.82-1.65,.27-.09,.82,1.65-.27,.09Zm-120.28-.18l-.92-1.56,.27-.18,.92,1.56-.27,.18Zm35.45-.55l-.09-.27,1.65-.73,.09,.27-1.65,.73Zm-34.63-.09l-.18-.18,1.47-1.19,.18,.18-1.47,1.19Zm111.85-.18l-.27-1.83h.27l.27,1.83h-.27Zm-38.38,0l-1.56-.92,.18-.28,1.56,.92-.18,.27Zm19.79-.55l-.18-.18,1.19-1.47,.18,.18-1.19,1.46Zm-32.15-.09l-.18-.18,1.28-1.28,.18,.18-1.28,1.28Zm6.05-.09l-.73-1.65,.27-.09,.73,1.65-.28,.09Zm78.23,0l-.27-.09,.37-1.83,.27,.09-.37,1.83Zm-1.74-1.47l-.27-.09,.82-1.65,.27,.09-.82,1.65Zm-74.02-.18l-1.56-.92,.18-.27,1.56,.92-.18,.27Zm-66.05-.37l-.18-.18,1.46-1.19,.18,.18-1.47,1.19Zm100.95-.18l-.27-.09,.46-1.74,.27,.09-.46,1.74Zm12.83-.18l-.82-1.65,.27-.09,.83,1.65-.27,.09Zm-120.46,0l-.92-1.56,.27-.18,.92,1.56-.27,.18Zm14.29-.18l-.27-.09,.55-1.74,.28,.09-.55,1.74Zm84.92-.82l-.18-.18,1.19-1.46,.18,.18-1.19,1.47Zm15.02-.37l-.27-1.83h.27l.27,1.83h-.27Zm35.09-.73l-.27-.09,.37-1.83,.27,.09-.37,1.83Zm-139.06-.37l-.18-.18,1.47-1.19,.18,.18-1.46,1.19Zm60.83-.28l-.09-.27,1.74-.55,.09,.27-1.74,.55Zm-8.43,0l-1.83-.27v-.27l1.83,.27v.27Zm86.2-.37l-.27-.09,.82-1.65,.27,.09-.82,1.65Zm-90.69-.46l-1.83-.28v-.27l1.83,.27v.28Zm-60.55-.37l-.73-1.28v-.46h.27v.37l.73,1.19-.27,.18Zm120.65-.09l-.83-1.65,.27-.09,.82,1.65-.27,.09Zm-42.87-.18l-.09-.27,1.74-.55,.09,.27-1.74,.55Zm33.35-.09l-.27-.09,.46-1.74,.27,.09-.46,1.74Zm-55.15,0l-1.83-.28v-.27l1.83,.27v.28Zm13.92-.09l-.55-1.74,.27-.09,.55,1.74-.27,.09Zm34.63-.18l-.18-.18,1.19-1.47,.18,.18-1.19,1.47Zm-86.57,0l-.28-.09,.55-1.74,.27,.09-.55,1.74Zm54.96,0l-.18-.18,1.1-1.47,.18,.18-1.1,1.47Zm-21.44-.46h-.27l-.09-.18,.55-1.47,.27,.09-.46,1.28h.09l-.09,.28Zm-35.27-.37l-.18-.18,1.47-1.19,.18,.18-1.47,1.19Zm135.76,0l-.64-1.74,.27-.09,.64,1.74-.27,.09Zm-1.01,0l-1.74-.55,.09-.27,1.74,.55-.09,.27Zm-68.8-.27l-.09-.27,1.74-.55,.09,.27-1.74,.55Zm33.71-.18l-.27-1.83h.27l.27,1.83h-.27Zm30.69-.92l-1.74-.55,.09-.27,1.74,.55-.09,.28Zm-60.1-.37l-.09-.28,1.74-.55,.09,.27-1.74,.55Zm32.06-.92l-.83-1.65,.27-.09,.82,1.65-.27,.09Zm23.63,0l-1.74-.55,.09-.28,1.74,.55-.09,.27Zm-34.81,0l-.18-.18,1.19-1.47,.18,.18-1.19,1.47Zm-31.7-.27l-.18-.18,1.1-1.47,.18,.18-1.1,1.47Zm-76.04,0h-.27l.09-1.83h.27l-.09,1.83Zm91.15-.27l-.09-.28,1.74-.55,.09,.27-1.74,.55Zm21.44-.09l-.27-.09,.46-1.74,.27,.09-.46,1.74Zm-73.47-.09l-.09-1.65h.28l.05,.82,.05,.82h-.27Zm29.77,0l-.55-1.74,.28-.09,.55,1.74-.27,.09Zm-15.67-.46l-.27-.09,.64-1.74,.27,.09-.64,1.74Zm84.92-.18l-1.74-.55,.09-.27,1.74,.55-.09,.27Zm12.46-.18l-.64-1.74,.27-.09,.64,1.74-.27,.09Zm-55.06-.46l-.09-.27,1.74-.55,.09,.27-1.74,.55Zm-107-.09l-.18-.18,1.19-1.38,.18,.18-1.19,1.37Zm126.97-.18l-.27-1.83h.27l.27,1.83h-.27Zm18.32-.37l-1.74-.55,.09-.27,1.74,.55-.09,.27Zm-142.91-.18l-.09-.27,1.74-.55,.09,.27-1.74,.55Zm108.92-.64l-.09-.28,1.74-.55,.09,.27-1.74,.55Zm10.81-.09l-.18-.18,1.19-1.47,.18,.18-1.19,1.47Zm-31.97-.37l-.18-.18,1.1-1.47,.18,.18-1.1,1.47Zm50.75-.09l-1.74-.55,.09-.27,1.74,.55-.09,.27Zm-134.11-.27l-.09-.27,1.74-.55,.09,.27-1.74,.55Zm4.95-.55h-.27l.09-1.1-.37,.09-.09-.27,.46-.18v-.46h.27v.37l.92-.37,.09,.27-1.1,.37v1.28Zm103.88-.18l-.09-.27,1.74-.55,.09,.27-1.74,.55Zm-36.55,0l-.55-1.74,.27-.09,.55,1.74-.28,.09Zm-28.67-.09l-.09-1.83h.27l.09,1.83h-.27Zm86.11-.18l-1.74-.55,.09-.27,1.74,.55-.09,.28Zm-70.17-.09l-.27-.09,.64-1.74,.27,.09-.64,1.74Zm-63.3-.09l-.18-.18,1.19-1.37,.18,.18-1.19,1.37Zm157.38-.37l-.64-1.74,.28-.09,.64,1.74-.27,.09Zm-40.49-.64l-.09-.27,1.74-.55,.09,.28-1.74,.55Zm12.18-.18l-1.74-.55,.09-.27,1.74,.55-.09,.27Zm-116.71-.64l-.09-.27,1.74-.55,.09,.27-1.74,.55Zm77.5-.27l-.18-.18,1.1-1.47,.18,.18-1.1,1.46Zm-73.1-1.19l-.09-.27,1.74-.55,.09,.27-1.74,.55Zm-13.74-.09l-.18-.18,1.19-1.38,.18,.18-1.19,1.37Zm34.17-.09l-1.47-1.01,.18-.18,1.46,1.01-.18,.18Zm-28.31-.46h-.27l.09-1.83h.28l-.09,1.83Zm65.77,0l-.55-1.74,.27-.09,.55,1.74-.27,.09Zm-34.9,0l-.09-.27,1.65-.82,.09,.27-1.65,.82Zm7.42-.27l-.09-1.83h.28l.09,1.83h-.27Zm17.68,0l-.27-.09,.64-1.74,.28,.09-.64,1.74Zm53.68-.18l-1.74-.55,.09-.27,1.74,.55-.09,.27Zm37.19-.18l-.64-1.74,.27-.09,.64,1.74-.27,.09Zm-134.85-.46l-.27-.09,.82-1.65,.27,.09-.82,1.65Zm104.71-.09l-.18-.18,1.47-1.1,.18,.18-1.47,1.1Zm-11.45-.55l-1.74-.55,.09-.27,1.74,.55-.09,.27Zm-21.62-.09l-.18-.18,1.1-1.47,.18,.18-1.1,1.47Zm-48.64-.18l-.09-.28,1.65-.82,.09,.27-1.65,.83Zm-10.54-.09l-1.47-1.01,.18-.18,1.47,1.01-.18,.18Zm-27.21-.82l-.18-.18,1.19-1.37,.18,.18-1.19,1.37Zm103.61-.09l-1.74-.55,.09-.27,1.74,.55-.09,.28Zm14.02-.73h-.28l.28-1.83h.27l-.27,1.83Zm5.4-.28l-.18-.18,1.47-1.1,.18,.18-1.46,1.1Zm-81.17,0l-.09-.27,1.65-.83,.09,.28-1.65,.82Zm57.35-.27l-1.74-.55,.09-.28,1.74,.55-.09,.27Zm-32.06-.09l-.55-1.74,.27-.09,.55,1.74-.27,.09Zm-64.22-.18h-.27l.09-1.83h.18l-.09-.09,1.19-1.37,.18,.18-1.19,1.37-.09,1.74Zm57.44,0l-.27-.09,.64-1.74,.27,.09-.64,1.74Zm-36.92-.09l-1.47-1.01,.18-.18,1.47,1.01-.18,.18Zm17.4-.18l-.09-1.83h.27l.09,1.83h-.27Zm107.09-.09l-.64-1.74,.27-.09,.64,1.74-.27,.09Zm-131.18-.27l-.27-.09,.83-1.65,.27,.09-.83,1.65Zm72.37-.37l-.18-.18,1.01-1.37-1.28-.37,.09-.27,1.74,.55-.09,.27-.18-.09-1.1,1.47Zm5.68-.09l-1.74-.55,.09-.27,1.74,.55-.09,.27Zm19.6-.09l-.64-1.74,.27-.09,.64,1.74-.27,.09Zm-68.43-.27l-.09-.27,1.65-.82,.09,.27-1.65,.82Zm80.61-.82l-.18-.18,1.47-1.1,.18,.18-1.47,1.1Zm-106.91-.46l-1.47-1.01,.18-.18,1.47,1.01-.18,.18Zm30.41-.73l-.09-.27,1.65-.82,.09,.27-1.65,.82Zm35.91-.18l-1.74-.55,.09-.27,1.74,.55-.09,.27Zm32.25-.09h-.27l.27-1.83h.27l-.27,1.83Zm-52.49-.46l-.55-1.74,.28-.09,.55,1.74-.27,.09Zm-3.85-.09l-.27-.09,.64-1.74,.27,.09-.64,1.74Zm-58.72-.27h-.27l.09-1.83h.27l-.09,1.83Zm143,0l-.64-1.74,.28-.09,.64,1.74-.27,.09Zm-54.32-.09l-.18-.18,1.1-1.47,.18,.18-1.1,1.47Zm-73.2-.09l-.27-.09,.82-1.65,.28,.09-.83,1.65Zm21.99-.09l-.09-1.83h.27l.09,1.83h-.27Zm40.95-.09l-1.74-.55,.09-.27,1.74,.55-.09,.27Zm48.55-.18l-.18-.18,1.47-1.1,.18,.18-1.47,1.1Zm-124.04,0l-.18-.18,1.19-1.37,.18,.18-1.19,1.37Zm9.8-.18l-1.47-1.01,.18-.18,1.47,1.01-.18,.18Zm38.29-.09l-.09-.28,1.65-.82,.09,.27-1.65,.83Zm58.63-.18l-.64-1.74,.27-.09,.64,1.74-.27,.09Zm-35.54-.73l-1.74-.55,.09-.27,1.74,.55-.09,.27Zm-18.96-1.1l-.09-.27,1.65-.83,.09,.28-1.65,.82Zm14.57-.18l-1.74-.55,.09-.27,1.74,.55-.09,.27Zm-60.74-.27l-1.47-1.01,.18-.18,1.47,1.01-.18,.18Zm121.65-.09l-.18-.18,1.47-1.1,.18,.18-1.47,1.1Zm-14.93-.27h-.27l.27-1.83h.27l-.27,1.83Zm-24.37-.09l-.18-.18,1.1-1.47,.18,.18-1.1,1.46Zm-85.38-.18l-.18-.18,1.19-1.37,.18,.18-1.19,1.37Zm135.4-.37l-.64-1.74,.27-.09,.64,1.74-.27,.09Zm-76.04,0l-1.74-.55,.09-.27,1.74,.55-.09,.27Zm-47.82,0l-.27-.18,.82-1.65,.27,.09-.83,1.74Zm-17.31-.27h-.27l.09-1.83h.27l-.09,1.83Zm37.1-.27l-.09-1.83h.27l.09,1.83h-.27Zm70.9-.46l-.64-1.74,.27-.09,.64,1.74-.27,.09Zm-102.97-.64l-1.47-1.01,.18-.18,1.47,1.01-.18,.18Zm57.26-.27l-.09-.28,1.74-.55,.09,.27-1.74,.55Zm71.73,0l-.18-.18,1.47-1.1,.18,.18-1.47,1.1Zm-76.77,0l-1.83-.37,.09-.28,1.83,.37-.09,.28Zm86.75-.18l-1.46-1.1,.18-.18,1.47,1.1-.18,.18Zm-91.24-.64l-1.83-.37,.09-.27,1.83,.37-.09,.27Zm8.61-.27l-.28-.09,.64-1.74,.27,.09-.64,1.74Zm-52.49,0l-.18-.18,1.19-1.37,.18,.18-1.19,1.37Zm50.57-.09l-1.01-1.56,.18-.18,1.01,1.56-.18,.18Zm34.45,0l-.18-.18,1.1-1.47,.18,.18-1.1,1.47Zm-27.3-.27l-.09-.27,1.74-.55,.09,.27-1.74,.55Zm-18.32-.18l-1.83-.37,.09-.27,1.83,.37-.09,.27Zm67.88-.37h-.27l.27-1.83h.27l-.27,1.83Zm-96.92-.27l-.27-.09,.82-1.65,.28,.09-.83,1.65Zm-18.05,0l-1.01-.73v.09h-.28v-.37l.18-.09,1.19,.83-.09,.27Zm42.6-.18l-1.83-.37,.09-.28,1.83,.37-.09,.27Zm27.21-.46l-.09-.28,1.74-.55,.09,.27-1.74,.55Zm-34.08-.28l-.09-1.83h.28l.09,1.83h-.27Zm2.38-.09l-1.83-.37,.09-.28,1.83,.37-.09,.27Zm67.24-.09l-.64-1.74,.27-.09,.64,1.74-.27,.09Zm-71.82-.73l-1.83-.37,.09-.27,1.83,.37-.09,.27Zm40.58-.18l-.09-.27,1.74-.55,.09,.27-1.74,.55Zm-63.39-.18l-.18-.18,1.19-1.37,.18,.18-1.19,1.37Zm47.91-.18l-.27-1.83h.27l.27,1.83h-.27Zm75.85-.18l-1.74-.46,.09-.27,1.74,.46-.09,.27Zm-39.02-.09l-.18-.18,1.1-1.47,.18,.18-1.1,1.47Zm-66.42,0l-1.83-.37,.09-.27,1.83,.37-.09,.27Zm26.66,0l-1.01-1.56,.18-.18,1.01,1.56-.18,.18Zm6.14-.46l-.27-.09,.64-1.74,.27,.09-.64,1.74Zm-37.29-.37l-1.83-.37,.09-.28,1.83,.37-.09,.28Zm53.87-.09l-.09-.27,1.74-.55,.09,.27-1.74,.55Zm51.67-.18l-1.74-.46,.09-.28,1.74,.46-.09,.27Zm-110.02-.37l-.27-.09v-.09l-1.56-.27,.09-.27,1.65,.27,.64-1.28,.27,.09-.82,1.65Zm95.55-.09h-.27l.27-1.83h.28l-.28,1.83Zm10.08-.73l-1.74-.46,.09-.27,1.74,.46-.09,.28Zm-42.87,0l-.09-.28,1.74-.55,.09,.27-1.74,.55Zm-67.24-.09l-1.83-.37,.09-.27,1.83,.37-.09,.27Zm88.22-.37l-.64-1.74,.27-.09,.64,1.74-.27,.09Zm-68.25-.09l-.09-1.83h.27l.09,1.83h-.27Zm99.76-.18l-.92-1.56,.27-.18,.92,1.56-.27,.18Zm-14.02-.46l-1.74-.46,.09-.27,1.74,.46-.09,.27Zm15.48-.18l-.37-1.83,.27-.09,.37,1.83-.27,.09Zm-38.66,0l-.18-.18,1.1-1.47,.18,.18-1.1,1.47Zm-10.99-.09l-.09-.27,1.74-.55,.09,.27-1.74,.55Zm-33.99-.09l-1.01-1.56,.18-.18,1.01,1.56-.18,.18Zm4.86-.37l-.27-1.83h.27l.27,1.83h-.27Zm58.81-.46l-1.74-.46,.09-.28,1.74,.46-.09,.27Zm-53.23,0l-.27-.09,.64-1.74,.27,.09-.64,1.74Zm27.94-.55l-.09-.27,1.74-.55,.09,.27-1.74,.55Zm-69.53-.37l-.27-.09,.82-1.65,.27,.09-.83,1.65Zm90.42-.27l-1.74-.46,.09-.27,1.74,.46-.09,.28Zm3.94-.28h-.27l.27-1.83h.28l-.28,1.83Zm-20.52-.55l-.09-.27,1.74-.55,.09,.27-1.74,.55Zm37.19-.27l-.92-1.56,.27-.18,.92,1.56-.27,.18Zm-25.01-.09l-1.74-.46,.09-.27,1.74,.46-.09,.27Zm-72.65-.37l-.09-1.83h.27l.09,1.83h-.27Zm15.3-.18l-1.01-1.56,.18-.18,1.01,1.56-.18,.18Zm85.2-.55l-.37-1.83,.27-.09,.37,1.83-.27,.09Zm-78.42-.64l-.27-1.83h.27l.27,1.83h-.27Zm7.79-.18l-.27-.09,.64-1.74,.27,.09-.64,1.74Zm32.06-.27l-1.83-.18v-.28l1.83,.18v.28Zm-73.29-.46l-.28-.09,.82-1.65,.27,.09-.82,1.65Zm68.71-.09l-1.83-.18v-.28l1.83,.18v.28Zm-4.58-.55l-1.83-.18v-.27l1.83,.18v.27Zm28.86-.27h-.27l.27-1.83h.27l-.27,1.83Zm-33.35-.18l-1.83-.18v-.27l1.83,.18v.27Zm46.99-.09l-.92-1.56,.27-.18,.92,1.56-.27,.18Zm-51.58-.46l-1.83-.18v-.27l1.83,.18v.27Zm-30.96-.09l-1.01-1.56,.18-.18,1.01,1.56-.18,.18Zm26.38-.46l-1.83-.18v-.27l1.83,.18v.27Zm-39.3-.09l-.09-1.83h.27l.09,1.83h-.27Zm69.71-.27l-.18-.18,1.19-1.37,.18,.18-1.19,1.37Zm-34.9-.18l-1.83-.18v-.28l1.83,.18v.27Zm28.95,0l-1.1-1.47,.18-.18,1.1,1.47-.18,.18Zm36-.18l-.37-1.83,.27-.09,.37,1.83-.27,.09Zm-69.53-.28l-1.83-.18v-.27l1.83,.18v.27Zm1.46-.27l-.27-.09,.64-1.74,.27,.09-.64,1.74Zm-10.08-.18l-.27-1.83h.27l.27,1.83h-.27Zm44.06,0l-.37-1.83,.27-.09,.37,1.83-.27,.09Zm-40.03-.09l-1.83-.18v-.28l1.83,.18v.27Zm-34.9-.37l-.27-.09,.82-1.65,.27,.09-.82,1.65Zm30.41-.18l-1.83-.18v-.27l1.83,.18v.27Zm-4.58-.46l-1.83-.18v-.28l1.83,.18v.28Zm76.58-.37l-.92-1.56,.27-.18,.92,1.56-.28,.18Zm-81.16-.18l-1.83-.18v-.18l-.92-1.28,.18-.18,1.01,1.47,1.47,.18,.09,.18Zm70.45-.09h-.27l.27-1.83h.27l-.27,1.83Zm-74.93-.46l-1.83-.18v-.27l1.83,.18v.28Zm65.13-.28l-.18-.18,1.19-1.37,.18,.18-1.19,1.37Zm-69.71-.18l-1.83-.18v-.27l1.83,.18v.27Zm58.08-.09l-1.1-1.47,.18-.18,1.1,1.47-.18,.18Zm-61.19-.46l-.09-1.83h.27l.09,1.83h-.27Zm-1.47,0l-1.83-.18v-.27l1.83,.18v.27Zm-4.58-.55l-1.83-.18v-.27l1.83,.18v.27Zm39.57-.37l-.28-.09,.64-1.74,.27,.09-.64,1.74Zm-44.06-.18l-1.83-.18v-.27l1.83,.18v.27Zm75.49-.18l-.37-1.83,.27-.09,.37,1.83-.27,.09Zm-43.79,0l-.27-1.83h.27l.27,1.83h-.27Zm-28.21-.09l-.28-.09,.83-1.65,.27,.09-.82,1.65Zm-8.06-.18l-1.83-.18v-.28l1.83,.18v.28Zm-4.58-.55l-1.83-.18v-.28l1.83,.18v.27Zm110.75-.18l-.92-1.56,.27-.18,.92,1.56-.27,.18Zm-83.09-.18l-1.01-1.56,.18-.18,1.01,1.56-.18,.18Zm67.88-.28l-.18-.18,1.19-1.38,.18,.18-1.19,1.37Zm7.42-.37h-.27l.27-1.83h.27l-.27,1.83Zm-24.82-.09l-1.1-1.47,.18-.18,1.1,1.47-.18,.18Zm-58.63-1.37l-.09-1.83h.27l.09,1.83h-.27Zm35.36-.64l-.27-.09,.64-1.74,.27,.09-.64,1.74Zm-40.31-.37l-.27-.09,.82-1.65,.27,.09-.82,1.65Zm69.16-.18l-.37-1.83,.28-.09,.37,1.83-.27,.09Zm-43.42-.09l-.27-1.83h.27l.27,1.83h-.27Zm68.06-.37l-.92-1.56,.27-.18,.92,1.56-.28,.18Zm-9.89,0l-.18-.18,1.19-1.38,.18,.18-1.19,1.37Zm-73.29-.09l-1.01-1.56,.18-.18,1.01,1.56-.18,.18Zm50.2-.55l-1.1-1.46,.18-.18,1.1,1.46-.18,.18Zm28.22-.82h-.27l.27-1.83h.28l-.28,1.83Zm-84.28-1.47l-.09-1.83h.28l.09,1.83h-.28Zm37.19-.27l-.28-.09,.64-1.74,.27,.09-.64,1.74Zm-39.94-.27l-.27-.09,.82-1.65,.27,.09-.82,1.65Zm84.83,0l-.18-.18,1.19-1.37,.18,.18-1.19,1.38Zm-78.78-.46l-1.01-1.56,.18-.18,1.01,1.56-.18,.18Zm83.46,0l-.92-1.56,.27-.18,.92,1.56-.27,.18Zm-23.27-.09l-.37-1.83,.27-.09,.37,1.83-.27,.09Zm-43.15-.09l-.27-1.83h.27l.27,1.83h-.27Zm32.98-.09l-1.1-1.47,.18-.18,1.1,1.47-.18,.18Zm37.65-.64l-1.74-.64,.09-.27,1.74,.64-.09,.27Zm-91.15-2.66l-.09-1.28-.55,1.19-.27-.09,.82-1.65,.09,.09,.09-.09,1.01,1.56-.18,.18-.73-1.1,.09,1.37-.27-.18Zm39.02,0l-.27-.09,.64-1.74,.27,.09-.64,1.74Zm11.63-.37l-1.1-1.46,.18-.18,1.1,1.47-.18,.18Zm31.79-.18l-1.74-.64,.09-.28,1.74,.64-.09,.27Zm-19.6-.46l-.37-1.83,.27-.09,.37,1.83-.27,.09Zm15.39-1.19l-1.74-.64,.09-.28,1.74,.64-.09,.27Zm4.21-.55l-1.19-1.37,.18-.18,1.19,1.37-.18,.18Zm-8.52-1.1l-1.74-.64,.09-.27,1.74,.64-.09,.27Zm-26.02-.18l-1.1-1.47,.18-.18,1.1,1.47-.18,.18Zm36.37-.18l-.27-1.83h.27l.27,1.83h-.27Zm-43.51,0l-.27-.09,.64-1.74,.27,.09-.64,1.74Zm21.16-1.28l-.37-1.83,.27-.09,.37,1.83-.27,.09Zm7.69,0l-1.74-.64,.09-.27,1.74,.64-.09,.27Zm9.89-.73l-1.19-1.38,.18-.18,1.19,1.37-.18,.18Zm-14.11-.92l-1.74-.64,.09-.27,1.74,.64-.09,.27Zm-20.24-.55l-1.1-1.47,.18-.18,1.1,1.47-.18,.18Zm-2.75-.83l-.27-.09,.64-1.74,.27,.09-.64,1.74Zm41.13-.18l-.27-1.83h.27l.27,1.83h-.27Zm-22.44-.09l-1.74-.64,.09-.27,1.74,.64-.09,.27Zm15.48-1.01l-1.19-1.37,.18-.18,1.19,1.38-.18,.18Zm-15.57-.18l-.37-1.83,.27-.09,.37,1.83-.27,.09Zm-4.21-.46l-1.74-.64,.09-.28,1.74,.64-.09,.28Zm-14.38-.92l-1.1-1.46,.18-.18,1.1,1.46-.18,.18Zm10.17-.73l-1.74-.64,.09-.27,1.74,.64-.09,.28Zm-8.52-.73l-.27-.09,.64-1.74,.27,.09-.64,1.74Zm29.59-.46l-1.19-1.37,.18-.18,1.19,1.37-.18,.18Zm-25.38-.46l-1.74-.64,.09-.27,1.74,.64-.09,.27Zm11.82-.73l-.37-1.83,.27-.09,.37,1.83-.27,.09Zm-20.52-.55l-1.1-1.47,.18-.18,1.1,1.47-.18,.18Zm4.49-.37l-1.74-.64,.09-.27,1.74,.64-.09,.27Zm26.66-1.47l-1.19-1.37,.18-.18,1.19,1.37-.18,.18Zm-25.01-.18l-.27-.09,.64-1.74,.28,.09-.64,1.74Zm-5.95,0l-1.74-.64,.09-.27,1.74,.64-.09,.27Zm19.51-1.92l-.37-1.83,.27-.09,.37,1.83-.27,.09Zm8.52-1.37l-1.19-1.37,.18-.18,1.19,1.37-.18,.18Zm-20.43-1.01l-.27-.09,.64-1.74,.27,.09-.64,1.74Zm10.99-2.11l-.37-1.83,.27-.09,.37,1.83-.27,.09Zm6.5-.46l-1.19-1.37,.18-.18,1.19,1.37-.18,.18Zm-2.84-3.48l-1.19-1.37,.18-.18,1.19,1.37-.18,.18Zm-4.58-.55l-.37-1.83,.27-.09,.37,1.83-.27,.09Zm1.65-2.93l-1.19-1.37,.18-.18,1.19,1.37-.18,.18Zm-2.57-1.56l-.37-1.83,.27-.09,.37,1.83-.27,.09Z"/><path class="h" d="M999.5,210l4,4m21-15l-6.5,6"/><path class="h" d="M986.5,232l-18-.5"/><path class="h" d="M1002.5,217l-12.5,13.5"/><path class="j" d="M960.5,217l7.5-4,19-8.5-13.5,13m-33.5,8l16-6.5m1.5,1l-5.5,15"/><path class="i" d="M973.5,218l5.5,13.5"/><path class="h" d="M960.5,220c.5,.5,2,2,3,3.5"/><path class="h" d="M949.5,216.5l7,1"/><path class="h" d="M986.5,229.5l-28-25"/><path class="h" d="M973.5,217.5l-5,13.5"/><path class="v" d="M822.3,329.39l-.18-.09v-.18l.27-.09,1.01-.92,.18,.18-1.28,1.1Zm3.3-2.75l-.18-.18,1.37-1.19,.18,.18-1.37,1.19Zm-4.03-.18l-.37-1.83,.27-.09,.37,1.83-.28,.09Zm-.92-4.49l-.37-1.83,.27-.09,.37,1.83-.28,.09Zm-4.95-1.28l-.28-.09,.64-1.74,.27,.09-.64,1.74Zm-6.5-2.66l-.18-.18,1.46-1.01,.18,.18-1.47,1.01Zm10.63-.64l-.37-1.83,.27-.09,.37,1.83-.28,.09Zm-2.66-1.1l-.28-.09,.64-1.74,.27,.09-.64,1.74Zm-4.12-.83l-.18-.18,1.47-1.01,.18,.18-1.47,1.01Zm5.86-2.57l-.18-1.1-.09,.18-.27-.09,.18-.64-.18-1.83h.27l.18,1.83,.28,1.56-.18,.09Zm-2.11,0l-.18-.18,1.47-1.01,.18,.18-1.47,1.01Zm21.53-5.13l-.37-1.83,.27-.09,.37,1.83-.27,.09Zm-20.25-1.01l-.18-1.83h.27l.18,1.83h-.28Zm18.78-.73l-1.1-1.47,.18-.18,1.1,1.46-.18,.18Zm.55-2.75l-.37-1.83,.27-.09,.37,1.83-.27,.09Zm-3.21-1.01l-1.1-1.47,.18-.18,1.1,1.46-.18,.18Zm-16.67,0l-.18-1.83h.27l.18,1.83h-.27Zm18.96-3.48l-.37-1.83,.27-.09,.37,1.83-.27,.09Zm-4.95-.18l-1.1-1.46,.18-.18,1.1,1.47-.18,.18Zm-14.57-.92l-.18-1.83h.27l.18,1.83h-.27Zm11.82-2.75l-1.1-1.47,.18-.18,1.1,1.47-.18,.18Zm6.69-.64l-.37-1.83,.28-.09,.37,1.83-.27,.09Zm-19.05-1.1l-.18-1.83h.27l.18,1.83h-.27Zm9.71-2.02l-1.1-1.47,.18-.18,1.1,1.47-.18,.18Zm8.43-1.37l-.37-1.83,.28-.09,.37,1.83-.27,.09Zm-18.6-1.19l-.18-1.83h.27l.18,1.83h-.28Zm7.51-1.1l-1.1-1.47,.18-.18,1.1,1.46-.18,.18Zm25.92-2.11l-1.74-.55,.09-.27,1.37,.46-.73-1.28,.27-.18,.64,1.1-.09-1.28h.27l.18,1.83h-.09l-.18,.18Zm-15.76-.09l-.37-1.83,.28-.09,.37,1.83-.27,.09Zm11.36-1.28l-1.74-.55,.09-.28,1.74,.55-.09,.27Zm-29.59,0l-.18-1.83h.28l.18,1.83h-.28Zm5.31-.27l-1.1-1.47,.18-.18,1.1,1.47-.18,.18Zm19.88-1.01l-1.74-.55,.09-.27,1.74,.55-.09,.28Zm-4.4-1.28l-1.74-.55,.09-.27,1.74,.55-.09,.27Zm10.72-.09l-.92-1.56,.28-.18,.92,1.56-.28,.18Zm-14.2-.55l-.37-1.83,.28-.09,.37,1.83-.27,.09Zm16.21-.09l-.18-1.83h.27l.18,1.83h-.27Zm-17.13-.64l-1.74-.55,.09-.27,1.74,.55-.09,.27Zm-13.74,0l-1.1-1.46,.18-.18,1.1,1.47-.18,.18Zm-3.21-.55l-.18-1.83h.28l.18,1.83h-.27Zm12.55-.73l-1.74-.55,.09-.27,1.74,.55-.09,.28Zm-4.4-1.28l-1.74-.55,.09-.28,1.74,.55-.09,.27Zm21.53,0l-.92-1.56,.27-.18,.92,1.56-.27,.18Zm-29.13-1.19l-1.01-1.37h-.09v-.18h.09l-.09-.09,.09-.09h.09l1.65-.73,.09,.27-1.56,.64,1.01,1.37-.28,.18Zm16.4,0l-.37-1.83,.27-.09,.37,1.83-.27,.09Zm-13.1-.09l-1.74-.55,.09-.27,1.74,.55-.09,.28Zm29.77-.09l-.18-1.83h.27l.18,1.83h-.28Zm-6.32-2.57l-.92-1.56,.28-.18,.92,1.56-.28,.18Zm-23.45-.46l-.09-.27,1.65-.73,.09,.27-1.65,.73Zm-2.38-.46l-.18-.18,1.19-1.37,.18,.18-1.19,1.37Zm14.57-.82l-.37-1.83,.27-.09,.37,1.83-.27,.09Zm17.22-.27l-.18-1.83h.27l.18,1.83h-.27Zm-25.19-.28l-.09-.27,1.65-.73,.09,.27-1.65,.73Zm16.86-1.65l-.92-1.56,.27-.18,.92,1.56-.27,.18Zm-12.64-.09l-.09-.27,1.65-.73,.09,.27-1.65,.73Zm31.61,0l-.09-1.83h.28l.09,1.83h-.27Zm-39.57-.46l-.18-.18,1.19-1.37,.18,.18-1.19,1.37Zm38.38-.27l-1.1-1.47,.18-.18,1.1,1.46-.18,.18Zm-26.2-1.01l-.09-.27,1.65-.73,.09,.27-1.65,.73Zm-1.37-.46l-.37-1.83,.27-.09,.37,1.83-.27,.09Zm17.77-.37l-.18-1.83h.28l.18,1.83h-.27Zm-12.18-1.01l-.09-.27,1.56-.64-.55-.92,.27-.18,.92,1.56-.27,.18-.28-.37-1.56,.64Zm-13.47-.37l-.18-.18,1.19-1.37,.18,.18-1.19,1.37Zm51.21-.37l-.46-.73,.18-.18,.46,.73-.18,.18Zm-18.6,0l-1.1-1.47,.18-.18,1.1,1.47-.18,.18Zm3.66-.27l-.09-1.83h.28l.09,1.83h-.27Zm-18.5-.73l-.09-.27,1.65-.73,.09,.27-1.65,.73Zm-10.81-1.37l-.37-1.83,.27-.09,.37,1.83-.27,.09Zm15.02-.46l-.09-.27,1.65-.73,.09,.27-1.65,.73Zm3.21,0l-.18-1.83h.27l.18,1.83h-.27Zm24-.18l-1.01-1.56,.18-.18,1.01,1.56-.18,.18Zm-46.26-.18l-.18-.18,1.19-1.37,.18,.18-1.19,1.37Zm9.99-.18l-.92-1.56,.28-.18,.92,1.56-.27,.18Zm16.86-.18l-1.1-1.47,.18-.18,1.1,1.47-.18,.18Zm-3.57-1.01l-.09-.28,1.65-.73,.09,.28-1.65,.73Zm9.8-.28l-.18-1.83h.27l.09,1.83h-.18Zm-5.59-1.47l-.09-.27,1.65-.73,.09,.28-1.65,.73Zm-24.64-.46l-.18-.18,.37-.46-.27-1.28,.27-.09,.18,1.01,.55-.73,.18,.18-.73,.92,.09,.37-.28,.09v-.18l-.18,.37Zm40.95-.09l-1.01-1.56,.18-.18,1.01,1.56-.18,.18Zm-19.79-.27l-1.1-1.46,.18-.18,1.1,1.46-.18,.18Zm-16.4-.18l-.92-1.56,.28-.18,.92,1.56-.27,.18Zm14.29-.09l-.18-1.83h.28l.18,1.83h-.28Zm9.8-.73l-.09-.27,1.65-.73,.09,.28-1.65,.73Zm1.01-1.28l-.09-1.83h.27l.09,1.83h-.28Zm3.21-.46l-.09-.28,1.65-.73,.09,.27-1.65,.73Zm-30.14-.46l-.18-.18,1.19-1.37,.18,.18-1.19,1.37Zm35.45-.37l-.73-1.1-.37,.18-.09-.27,.37-.09-.09-.18,.18-.18,.09,.18,1.1-.46,.09,.27-1.1,.46,.73,1.1-.18,.09Zm-36-.55l-.92-1.56,.27-.18,.92,1.56-.28,.18Zm-3.02-.09l-.37-1.83,.27-.09,.37,1.83-.27,.09Zm42.14-2.11l-.09-.27,1.65-.73,.09,.27-1.65,.73Zm-35.73-.37l-.18-.18,1.19-1.37,.18,.18-1.19,1.37Zm23.73-.18l-.09-1.83h.27l.18,1.83h-.37Zm6.41-.55l-1.01-1.56,.18-.18,1.01,1.56-.18,.18Zm-35.91-.64l-.92-1.56,.28-.18,.92,1.56-.28,.18Zm-1.56-.64l-.37-1.83,.27-.09,.37,1.83-.27,.09Zm10.26-1.56l-.18-.18,1.19-1.37,.18,.18-1.19,1.37Zm24.64-.92l-1.01-1.56,.18-.18,1.01,1.56-.18,.18Zm-4.21-.18l-.09-1.83h.27l.09,1.83h-.27Zm-31.15-.27l-.18-.28,1.56-1.01,.18,.18-1.56,1.1Zm3.85-2.57l-.18-.27,1.56-1.01,.18,.27-1.56,1.01Zm29.04-.82l-1.01-1.56,.18-.18,1.01,1.56-.18,.18Zm-2.02-.92l-.09-1.83h.28l.09,1.83h-.28Zm-23.18-.73l-.18-.28,1.56-1.01,.18,.27-1.56,1.01Zm55.79-1.74l-.27-.09,.37-1.83,.27,.09-.37,1.83Zm-52.03-.82l-.18-.18,1.56-1.01,.18,.28-1.56,.92Zm36-1.74l-1.01-1.56,.27-.18,1.01,1.56-.27,.18Zm-32.98-1.47l-.27-.09,.37-1.83,.28,.09-.37,1.83Zm50.02-.46l-.27-.09,.37-1.83,.27,.09-.37,1.83Zm-31.51-1.74l-.27-1.83h.27l.18,1.83h-.18Zm12-.18l-1.01-1.56,.27-.18,1.01,1.56-.27,.18Zm-21.53-1.01l-.73-1.01,.18-.18,.55,.73,.09-.28,.28,.09-.18,.55-.18,.09Zm-8.15-1.1l-.27-.09,.37-1.83,.28,.09-.37,1.83Zm50.11-.46l-.28-.09,.37-1.83,.28,.09-.37,1.83Zm-22.9-1.28l-1.01-1.56,.28-.18,1.01,1.56-.27,.18Zm-21.35-.37l-1.01-1.47,.18-.18,1.01,1.47-.18,.18Zm3.48-.09l-.27-.09,.55-1.74,.27,.09-.55,1.74Zm7.7-.09l-.18-1.83h.27l.18,1.83h-.27Zm40.86-.37l-.18-1.83h.27l.18,1.83h-.27Zm-56.98-1.83l-.27-.09,.37-1.83,.28,.09-.37,1.83Zm50.11-.46l-.27-.09,.37-1.83,.27,.09-.37,1.83Zm-26.2-.73l-1.01-1.56,.28-.18,1.01,1.56-.27,.18Zm-21.53-.18l-1.01-1.47,.18-.18,1.01,1.47-.18,.18Zm7.33-.73l-.27-.09,.55-1.74,.27,.09-.55,1.74Zm57.62-.18l-.27-.09,.37-1.83,.27,.09-.37,1.83Zm-51.76-.09l-.18-1.83h.27l.18,1.83h-.27Zm40.95-.37l-.18-1.83h.27l.18,1.83h-.28Zm-5.4-2.2l-.27-.09,.37-1.83,.27,.09-.37,1.83Zm-29.68-.09l-1.01-1.56,.27-.18,1.01,1.56-.27,.18Zm-10.44-1.46l-.27-.09,.55-1.74,.27,.09-.55,1.74Zm57.26-.27l-.27-.09,.37-1.83,.27,.09-.37,1.83Zm-53.22-.09l-.18-1.83h.27l.18,1.83h-.27Zm41.13-.37l-.18-1.83h.27l.18,1.83h-.28Zm-12.09-.46l-.09-.28,1.83-.37,.09,.27-1.83,.37Zm-1.56-.18l-.18-.18,1.1-1.46,.18,.18-1.1,1.47Zm6.05-.73l-.09-.28,1.83-.37,.09,.28-1.83,.37Zm-29.59-.28l-1.01-1.56,.27-.18,1.01,1.56-.28,.18Zm33.07-.55l-.28-.09,.37-1.83,.27,.09-.37,1.83Zm1.01-.09l-.09-.28,1.83-.37,.09,.28-1.83,.37Zm4.49-.92l-.09-.28,1.83-.37,.09,.28-1.83,.37Zm-45.25-.46l-.27-.09,.55-1.74,.27,.09-.55,1.74Zm56.89-.37l-.27-.09,.37-1.83,.27,.09-.37,1.83Zm-7.14-.09l-.09-.27,1.83-.37,.09,.27-1.83,.37Zm-16.67-.09l-.18-.18,1.1-1.47,.18,.18-1.1,1.47Zm-30.87,0l-.18-1.83h.27l.18,1.83h-.27Zm41.32-.37l-.18-1.83h.27l.18,1.83h-.27Zm10.72-.46l-.09-.27,1.83-.37,.09,.27-1.83,.37Zm-50.02-.46l-1.01-1.56,.28-.18,1.01,1.56-.27,.18Zm54.51-.46l-.09-.27,1.83-.37,.09,.27-1.83,.37Zm-34.54-.55l-.27-.09,.37-1.83,.28,.09-.37,1.83Zm-2.66,0l-1.83-.28v-.27l1.83,.27v.28Zm19.15-.09l-.27-.09,.37-1.83,.27,.09-.37,1.83Zm22.54-.28l-.09-.27,1.83-.37,.09,.27-1.83,.37Zm-46.26-.37l-1.83-.27v-.28l1.83,.28v.27Zm18.96-.55l-.18-.18,1.1-1.47,.18,.18-1.1,1.47Zm31.79,0l-.09-.27,1.47-.27v-.09l.18,.09v.27l-1.56,.27Zm-55.24-.18l-1.83-.27v-.28l1.83,.28v.27Zm-11.18-.09h-.27l.55-1.74h.09v-.09l.27-.09v.09l1.56,.27v.28l-1.47-.28,.09,.09-.18,.09,.09,.64h-.27l-.09-.37-.37,1.1Zm56.43-.46l-.27-.09,.37-1.83,.27,.09-.37,1.83Zm-49.74-.18l-1.83-.27v-.28l1.83,.28v.27Zm58.45-.27l-1.74-.55,.09-.28,1.74,.55-.09,.28Zm-23.27-.18l-.18-1.83h.27l.18,1.83h-.28Zm-38.47-1.01v-.27l1.83-.28v.28l-1.83,.27Zm57.35-.18l-1.74-.55,.09-.27,1.74,.55-.09,.27Zm-52.86-.55v-.27l1.83-.28v.28l-1.83,.27Zm16.03-.09l-.27-.09,.37-1.83,.27,.09-.37,1.83Zm16.4-.09l-.28-.09,.37-1.83,.28,.09-.37,1.83Zm-2.84-.27l-.18-.18,1.1-1.46,.18,.18-1.1,1.46Zm-25.01-.27v-.27l1.83-.28v.28l-1.83,.27Zm43.97-.09l-1.74-.55,.09-.27,1.74,.55-.09,.28Zm-39.48-.64v-.27l1.83-.27v.27l-1.83,.27Zm40.4-.64l-.28-.09,.37-1.83,.28,.09-.37,1.83Zm-5.31,0l-1.74-.55,.09-.27,1.74,.55-.09,.28Zm-30.6-.09v-.27l1.83-.27v.27l-1.83,.27Zm19.97-.64l-.18-1.83h.27l.18,1.83h-.27Zm-15.39-.09v-.28l1.83-.27v.27l-1.83,.28Zm21.62-.55l-1.74-.55,.09-.27,1.74,.55-.09,.27Zm-17.13-.18v-.28l1.83-.27v.27l-1.83,.28Zm9.8-.37l-.18-.18,.92-1.19-1.47,.27v-.27l1.83-.27v.09h.09l-.18,.83-.27-.09,.09-.27-.82,1.1Zm-5.31-.37v-.28l1.83-.27v.27l-1.83,.28Zm-10.17-.09l-.27-.09,.37-1.83,.27,.09-.37,1.83Zm18.41-.37l-1.74-.55,.09-.27,1.74,.55-.09,.27Zm15.02-1.74l-.27-.09,.09-.46,.28,.09-.09,.46Zm-32.43-2.38l-.28-.09,.37-1.83,.28,.09-.37,1.83Z"/><path class="n" d="M947.5,453c-76.1,0-138-62.59-138-139.5s61.9-139.5,138-139.5,138,62.59,138,139.5-61.9,139.5-138,139.5Zm0-278.35c-75.73,0-137.36,62.31-137.36,138.85s61.63,138.85,137.36,138.85,137.36-62.31,137.36-138.85-61.63-138.85-137.36-138.85Z"/><path class="p" d="M831.91,343.68l-3.02-2.01,.37-.55,3.02,2.02-.37,.55Zm-5.4-3.57l-3.02-2.02,.37-.55,3.02,2.02-.37,.55Zm-5.31-3.57l-3.02-2.02,.37-.55,3.02,2.02-.37,.55Zm-5.31-3.48l-3.02-2.02,.37-.55,3.02,2.01-.37,.55Zm-5.4-3.57l-3.02-2.02,.37-.55,3.02,2.01-.37,.55Zm-5.31-3.57l-3.02-2.02,.37-.55,3.02,2.02-.37,.55Zm-5.31-3.57l-3.02-2.02,.37-.55,3.02,2.02-.37,.55Zm-5.31-3.48l-3.02-2.01,.37-.55,3.02,2.02-.37,.55Zm-5.4-3.57l-3.02-2.02,.37-.55,3.02,2.01-.37,.55Zm-5.31-3.57l-3.02-2.02,.37-.55,3.02,2.01-.37,.55Zm34.9,0l-3.66-.46,.09-.64,3.66,.46-.09,.64Zm-6.32-.92l-3.66-.46,.09-.64,3.66,.46-.09,.64Zm-6.41-.82l-3.66-.46,.09-.64,3.66,.46-.09,.64Zm-6.32-.82l-3.66-.46,.09-.64,3.67,.46-.09,.64Zm-6.32-.82l-3.66-.46,.09-.64,3.66,.46-.09,.64Zm-14.84-.09l-3.02-2.01,.37-.55,3.02,2.02-.37,.55Zm8.43-.82l-3.67-.46,.09-.64,3.66,.46-.09,.64Zm-6.32-.82l-3.67-.46,.09-.64,3.66,.46-.09,.64Zm33.53-31.61l-1.28-3.39,.64-.28,1.28,3.39-.64,.27Zm-2.38-6.05l-1.28-3.39,.64-.27,1.28,3.39-.64,.27Zm-2.29-5.95l-1.28-3.39,.64-.27,1.28,3.39-.64,.27Zm-2.29-5.95l-1.28-3.39,.64-.27,1.28,3.39-.64,.27Zm-2.38-6.05l-1.28-3.39,.64-.27,1.28,3.39-.64,.27Zm20.89-4.31l-3.39-1.28,.27-.64,3.39,1.28-.27,.64Zm-23.18-1.65l-1.28-3.39,.64-.28,1.28,3.39-.64,.27Zm17.22-.64l-3.39-1.28,.28-.64,3.39,1.28-.27,.64Zm-6.05-2.29l-3.39-1.28,.27-.64,3.39,1.28-.28,.64Zm-5.95-2.29l-3.39-1.28,.27-.64,3.39,1.28-.27,.64Zm-7.51-.73l-1.01-2.47-.92-.37,.28-.64,.37,.09v-.09l.64-.27,.27,.64,2.2,.82-.27,.64-1.65-.64,.73,1.92-.64,.37Zm-4.49-3.85l-3.39-1.28,.27-.64,3.39,1.28-.28,.64Zm2.2-2.11l-1.28-3.39,.64-.27,1.28,3.39-.64,.28Zm-8.15-.18l-3.39-1.28,.27-.64,3.39,1.28-.27,.64Zm-6.05-2.29l-3.39-1.28,.28-.64,3.39,1.28-.27,.64Zm-5.95-2.29l-3.39-1.28,.28-.64,3.39,1.28-.28,.64Zm17.77-1.28l-1.28-3.39,.64-.28,1.28,3.39-.64,.27Zm-23.73-1.01l-3.39-1.28,.27-.64,3.39,1.28-.27,.64Zm-6.05-2.29l-3.39-1.28,.28-.64,3.39,1.28-.27,.64Zm74.75-2.02l-3.21-1.83,.37-.64,3.21,1.83-.37,.64Zm-80.71-.27l-.55-.18,.27-.64,.55,.18-.27,.64Zm33.44-.37l-1.28-3.39,.64-.28,1.28,3.39-.64,.28Zm41.68-2.57l-3.21-1.83,.37-.64,3.21,1.83-.37,.64Zm-5.5-3.21l-3.21-1.83,.37-.64,3.21,1.83-.37,.64Zm-38.48-.18l-1.28-3.39,.64-.28,1.28,3.39-.64,.27Zm215.1-.18l-.64-.18,.82-3.57,.64,.18-.82,3.57Zm-182.21-2.84l-3.21-1.83,.37-.64,3.21,1.83-.37,.64Zm31.88-2.29l-1.65-2.2,.55-.37,1.65,2.2-.55,.37Zm-67.15-.73l-1.28-3.39,.64-.27,1.28,3.39-.64,.27Zm29.68-.18l-3.21-1.83,.37-.64,3.21,1.83-.37,.64Zm189.26-.18l-.64-.18,.82-3.57,.64,.18-.82,3.57Zm-194.85-3.02l-3.21-1.83,.37-.64,3.21,1.83-.37,.64Zm39.76-.37l-2.11-2.93,.55-.37,2.11,2.93-.55,.37Zm-66.14-2.2l-1.28-3.39,.64-.27,1.28,3.39-.64,.27Zm110.39,0l-1.65-3.3,.64-.27,1.65,3.3-.64,.27Zm-89.5-.55l-3.21-1.83,.37-.64,3.21,1.83-.37,.64Zm201.9-.09l-.64-.18,.83-3.57,.64,.18-.83,3.57Zm-160.4-2.38l-2.11-2.93,.55-.37,2.11,2.93-.55,.37Zm-47.09-.73l-3.21-1.83,.37-.64,3.21,1.83-.37,.64Zm92.16-2.01l-1.65-3.3,.64-.27,1.65,3.3-.64,.27Zm-109.75-.18l-1.28-3.39,.64-.27,1.28,3.39-.64,.27Zm226.55-.92l-.64-.18,.82-3.57,.64,.18-.83,3.57Zm-214.55-.09l-3.21-1.83,.37-.64,3.21,1.83-.37,.64Zm48.92-1.19l-2.11-2.93,.55-.37,2.11,2.93-.55,.37Zm-54.42-2.01l-3.21-1.83,.37-.64,3.21,1.83-.37,.64Zm100.4-1.28l-1.65-3.3,.64-.28,1.65,3.3-.64,.27Zm-109.2-.46l-1.28-3.39,.64-.28,1.28,3.39-.64,.27Zm230.3-1.19l-.64-.18,.82-3.57,.64,.18-.82,3.57Zm-227.1-.27l-3.21-1.83,.37-.64,3.21,1.83-.37,.64Zm56.25,0l-2.11-2.93,.55-.37,2.11,2.93-.55,.37Zm46.81-3.76l-1.65-3.3,.64-.27,1.65,3.3-.64,.28Zm-50.48-1.47l-2.11-2.93,.55-.37,2.11,2.93-.55,.37Zm175.98-.73l-.64-.18,.82-3.57,.64,.18-.82,3.57Zm-128.43-3.57l-1.65-3.3,.64-.28,1.65,3.3-.64,.27Zm-51.3-.92l-2.11-2.93,.55-.37,2.11,2.93-.55,.37Zm181.29-1.74l-.64-.18,.82-3.57,.64,.18-.82,3.57Zm-132.83-3.02l-1.65-3.3,.64-.27,1.65,3.3-.64,.27Zm-52.22-.37l-2.11-2.93,.55-.37,2.11,2.93-.55,.37Zm186.52-2.93l-.64-.18,.82-3.57,.64,.18-.82,3.57Zm-190.27-2.29l-2.11-2.93,.55-.37,2.11,2.93-.55,.37Zm53.04-.18l-1.65-3.3,.64-.27,1.65,3.3-.64,.27Zm138.69-3.76l-.64-.18,.83-3.57,.64,.18-.82,3.57Zm-195.49-1.28l-2.11-2.93,.55-.37,2.11,2.93-.55,.37Zm53.96-.64l-1.65-3.3,.64-.28,1.65,3.3-.64,.27Zm143.09-4.31l-.64-.18,.55-2.38,.64,.18-.55,2.38Zm-200.8-.27l-2.11-2.93,.55-.37,2.11,2.93-.55,.37Zm54.78-1.19l-.27-.55-2.66-.18,.09-.64,2.84,.18,.27,.18,.37,.73-.64,.27Zm-5.68-.92l-3.67-.28,.09-.64,3.66,.27-.09,.64Zm-6.41-.46l-3.66-.27,.09-.64,3.67,.27-.09,.64Zm-6.41-.55l-3.66-.28,.09-.64,3.66,.27-.09,.64Zm-6.32-.46l-3.66-.27,.09-.64,3.66,.27-.09,.64Zm-6.41-.46l-3.66-.28,.09-.64,3.66,.28-.09,.64Zm-6.41-.46l-3.66-.27,.09-.64,3.66,.27-.09,.64Zm-6.41-.55l-3.66-.28,.09-.64,3.66,.27-.09,.64Zm-6.41-.46l-3.66-.27,.09-.64,3.66,.27-.09,.64Z"/><path class="p" d="M812.86,470.37l-.55-.37,1.83-3.11,.55,.37-1.83,3.11Zm3.21-5.5l-.55-.37,1.83-3.11,.55,.37-1.83,3.12Zm3.3-5.5l-.55-.37,1.83-3.12,.55,.37-1.83,3.11Zm3.21-5.59l-.55-.37,1.83-3.11,.55,.37-1.83,3.11Zm3.3-5.5l-.55-.37,1.83-3.11,.55,.37-1.83,3.11Zm3.21-5.5l-.55-.37,1.83-3.12,.55,.37-1.83,3.11Zm3.3-5.59l-.55-.37,1.83-3.11,.55,.37-1.83,3.11Zm3.21-5.5l-.55-.37,1.83-3.11,.55,.37-1.83,3.11Zm3.3-5.59l-.55-.37,1.83-3.12,.55,.37-1.83,3.12Zm-25.19-4.58l-1.83-1.01,.37-.64,1.56,.82,.82-1.01,.55,.46-1.01,1.19-.46,.18Zm28.4-.92l-.55-.37,1.83-3.12,.55,.37-1.83,3.11Zm-71.91-1.28l-.46-.55,2.93-2.2,.46,.55-2.93,2.2Zm39.3-.09l-3.21-1.74,.37-.64,3.21,1.74-.37,.64Zm7.42-1.1l-.55-.46,2.38-2.84,.55,.46-2.38,2.84Zm-13.01-2.02l-3.21-1.74,.37-.64,3.21,1.74-.37,.64Zm-28.58-.64l-.46-.55,2.93-2.2,.46,.55-2.93,2.2Zm70.08-.37l-.55-.37,1.83-3.11,.55,.37-1.83,3.11Zm-24.37-1.92l-.55-.46,2.38-2.84,.55,.46-2.38,2.84Zm-22.72-.18l-3.21-1.74,.37-.64,3.21,1.74-.37,.64Zm-17.96-1.47l-.46-.55,2.93-2.2,.46,.55-2.93,2.2Zm12.37-1.65l-3.21-1.74,.37-.64,3.21,1.74-.37,.64Zm55.88-.37l-.55-.37,1.83-3.11,.55,.37-1.83,3.11Zm-23.45-1.28l-.55-.46,2.38-2.84,.55,.46-2.38,2.84Zm-39.67-.64l-.46-.55,1.1-.82-2.29-1.28,.37-.64,2.57,1.37,1.28-.92,.46,.55-1.01,.73-.37,.64-.28-.18-1.37,1.1Zm66.32-3.57l-.55-.37,1.83-3.12,.55,.37-1.83,3.12Zm-61.19-.28l-.46-.55,2.93-2.2,.46,.55-2.93,2.2Zm-9.16-.09l-3.21-1.74,.37-.64,3.21,1.74-.37,.64Zm47.73-.37l-.55-.46,2.38-2.84,.55,.46-2.38,2.84Zm-53.32-2.75l-3.21-1.74,.37-.64,3.21,1.74-.37,.64Zm19.79-.73l-.46-.55,2.93-2.2,.46,.55-2.93,2.2Zm59.45-1.28l-.55-.37,1.83-3.11,.55,.37-1.83,3.12Zm-21.8-.18l-.55-.46,2.38-2.84,.55,.46-2.38,2.84Zm-63.03-.92l-3.21-1.74,.37-.64,3.21,1.74-.37,.64Zm30.51-1.46l-.46-.55,2.93-2.2,.46,.55-2.93,2.2Zm-36.19-1.56l-3.21-1.74,.37-.64,3.21,1.74-.37,.64Zm72.83-.92l-.55-.46,2.38-2.84,.55,.46-2.38,2.84Zm-31.6-1.47l-.46-.55,2.93-2.2,.46,.55-2.93,2.2Zm-46.81-.73l-3.21-1.74,.37-.64,3.21,1.74-.37,.64Zm82.54-2.75l-.55-.46,2.38-2.84,.55,.46-2.38,2.84Zm-30.6-.37l-.46-.55,2.93-2.2,.46,.55-2.93,2.2Zm-57.53,0l-1.74-.92v-.64l1.56-.82,.37,.64-.92,.55,1.19,.64-.46,.55Zm2.57-3.11l-.37-.64,3.21-1.74,.37,.64-3.21,1.74Zm60.1-.82l-.46-.55,2.93-2.2,.46,.55-2.93,2.2Zm29.5-.64l-.55-.46,2.38-2.84,.55,.46-2.38,2.84Zm-83.91-1.56l-.37-.64,3.21-1.74,.37,.64-3.21,1.74Zm59.45-1.65l-.46-.55,2.93-2.2,.46,.55-2.93,2.2Zm-53.86-1.37l-.37-.64,3.21-1.74,.37,.64-3.21,1.74Zm82.45-.37l-.55-.46,2.38-2.84,.55,.46-2.38,2.84Zm-23.45-2.2l-.46-.55,2.93-2.2,.46,.55-2.93,2.2Zm-53.32-.46l-.37-.64,3.21-1.74,.37,.64-3.21,1.74Zm5.59-3.11l-.37-.64,3.21-1.74,.37,.64-3.21,1.74Zm52.77-.27l-.46-.55,2.93-2.2,.46,.55-2.93,2.2Zm-47.09-2.75l-.37-.64,3.21-1.74,.37,.64-3.21,1.74Zm52.22-1.19l-.46-.55,2.93-2.2,.46,.55-2.93,2.2Zm-46.54-1.83l-.37-.64,3.21-1.74,.37,.64-3.21,1.74Zm5.59-3.02l-.37-.64,3.21-1.74,.37,.64-3.21,1.74Zm5.68-3.12l-.37-.64,3.21-1.74,.37,.64-3.21,1.74Zm5.59-3.02l-.37-.64,3.21-1.74,.37,.64-3.21,1.74Zm5.68-3.02l-.37-.64,3.21-1.74,.37,.64-3.21,1.74Zm5.68-3.02l-.37-.64,3.21-1.74,.37,.64-3.21,1.74Zm5.59-3.02l-.37-.64,3.21-1.74,.37,.64-3.21,1.74Zm5.68-3.12l-.37-.64,3.21-1.74,.37,.64-3.21,1.74Z"/><path class="p" d="M910.24,518.74l-1.83-.46,.18-.64,1.56,.37,.46-1.37,.64,.27-.64,1.65-.37,.18Zm-4.58-1.1l-3.57-.82,.18-.64,3.57,.83-.18,.64Zm-6.23-1.37l-3.57-.83,.18-.64,3.57,.83-.18,.64Zm-6.23-1.47l-3.57-.82,.18-.64,3.57,.83-.18,.64Zm18.96-.55l-.64-.28,1.28-3.48,.64,.27-1.28,3.48Zm-23.54-3.02l-.55-3.66,.64-.09,.55,3.66-.64,.09Zm25.74-3.02l-.64-.27,1.28-3.48,.64,.28-1.28,3.48Zm-26.66-3.3l-.55-3.67,.64-.09,.55,3.66-.64,.09Zm28.76-2.75l-.64-.28,1.28-3.48,.64,.27-1.28,3.48Zm123.67-2.29l-.73-.18,.18-.64,.55,.09,2.47-1.37,.37,.64-2.57,1.47h-.27Zm-3.39-.73l-3.57-.82,.18-.64,3.57,.83-.18,.64Zm-149.96-.55l-.55-3.66,.64-.09,.55,3.66-.64,.09Zm143.73-.92l-3.57-.82,.18-.64,3.57,.82-.18,.64Zm14.84-.64l-.37-.64,3.21-1.83,.37,.64-3.21,1.83Zm-21.07-.82l-3.57-.83,.18-.64,3.57,.82-.18,.64Zm-105.62,0l-.64-.27,1.28-3.48,.64,.28-1.28,3.48Zm99.3-1.47l-3.57-.82,.18-.64,3.57,.83-.18,.64Zm32.98-.82l-.37-.64,3.21-1.83,.37,.64-3.21,1.83Zm-39.21-.64l-3.57-.82,.18-.64,3.57,.82-.18,.64Zm-125.96-1.1l-.55-3.66,.64-.09,.55,3.66-.64,.09Zm119.73-.37l-3.57-.83,.18-.64,3.57,.82-.18,.64Zm50.93-1.1l-.37-.64,2.2-1.28-.18-.27,.55-.46,.46,.55-.09,.55-2.57,1.56Zm-57.16-.37l-3.57-.82,.18-.64,3.57,.83-.18,.64Zm-78.42-.18l-.64-.28,1.28-3.48,.64,.27-1.28,3.48Zm72.19-1.19l-3.57-.83,.18-.64,3.57,.82-.18,.64Zm-6.23-1.47l-3.57-.82,.18-.64,3.57,.83-.18,.64Zm69.53-1.01l-2.38-2.84,.55-.46,2.38,2.84-.55,.46Zm-75.85-.46l-3.57-.82,.18-.64,3.57,.82-.18,.64Zm-95.64-.18l-.55-3.66,.64-.09,.55,3.66-.64,.09Zm89.41-1.28l-3.57-.83,.18-.64,3.57,.82-.18,.64Zm-51.21-.46l-.64-.27,1.28-3.48,.64,.27-1.28,3.48Zm129.26-2.57l-2.38-2.84,.55-.46,2.38,2.84-.55,.46Zm-82.17-.73l-.18-3.66h.64l.18,3.66h-.64Zm-86.2-1.28l-.55-3.66,.64-.09,.55,3.66-.64,.09Zm41.32-1.47l-.64-.27,1.28-3.48,.64,.27-1.28,3.48Zm122.94-1.37l-2.38-2.84,.55-.46,2.38,2.84-.55,.46Zm-78.42-2.29l-.18-3.66h.64l.18,3.66h-.64Zm-86.75-1.19l-.55-3.66,.64-.09,.55,3.67-.64,.09Zm44.43-1.19l-.64-.27,1.28-3.48,.64,.27-1.28,3.48Zm116.62-.27l-2.38-2.84,.55-.46,2.38,2.84-.55,.46Zm-74.66-3.76l-.18-3.66h.64l.18,3.66h-.64Zm-87.39-1.19l-.55-3.67,.64-.09,.55,3.66-.64,.09Zm158.02,0l-2.38-2.84,.55-.46,2.38,2.84-.55,.46Zm-110.39-.82l-.64-.28,1.28-3.48,.64,.27-1.28,3.48Zm106.26-4.12l-2.38-2.84,.55-.46,2.38,2.84-.55,.46Zm-66.87-.27l-.18-3.66h.64l.18,3.66h-.64Zm-87.94-1.1l-.55-3.67,.64-.09,.55,3.66-.64,.09Zm50.66-.46l-.64-.27,1.28-3.48,.64,.27-1.28,3.48Zm100.04-3.11l-2.38-2.84,.55-.46,2.38,2.84-.55,.46Zm-63.12-1.65l-.18-3.66h.64l.18,3.66h-.64Zm-88.49-1.1l-.55-3.67,.64-.09,.55,3.66-.64,.09Zm53.77-.18l-.64-.27,1.28-3.48,.64,.27-1.28,3.48Zm93.81-2.02l-2.38-2.84,.55-.46,2.38,2.84-.55,.46Zm-59.45-3.11l-.18-3.66h.64l.18,3.66h-.64Zm-32.15-.92l-.64-.27,1.28-3.48,.64,.27-1.28,3.48Zm-56.98-.09l-.55-3.67,.64-.09,.55,3.66-.64,.09Zm144.47-.83l-2.38-2.84,.55-.46,2.38,2.84-.55,.46Zm-55.7-4.58l-.18-3.67h.64l.18,3.67h-.64Zm51.58-.37l-2.38-2.84,.55-.46,2.38,2.84-.55,.46Zm-81.16-.18l-.64-.27,1.28-3.48,.64,.27-1.28,3.48Zm-60.1-.46l-.55-3.66,.64-.09,.55,3.66-.64,.09Zm137.14-4.21l-2.38-2.84,.55-.46,2.38,2.84-.55,.46Zm-47.82-1.19l-.18-3.66h.64l.18,3.66h-.64Zm-27.02-.18l-.64-.27,1.28-3.48,.64,.27-1.28,3.48Zm-63.21-.73l-.55-3.66,.64-.09,.55,3.67-.64,.09Zm134.02-2.84l-2.38-2.84,.55-.46,2.38,2.84-.55,.46Zm-68.61-2.38l-.64-.27,1.28-3.48,.64,.27-1.28,3.48Zm24.46-.27l-.18-3.67h.64l.18,3.67h-.64Zm107.55-.83l-.82-.46,.37-.55,.83,.46-.37,.55Zm-198.42,0l-.55-3.66,.64-.09,.55,3.66-.64,.09Zm130.91-1.47l-2.38-2.84,.55-.46,2.38,2.84-.55,.46Zm64.4-.46l-3.11-1.92,.37-.55,3.11,1.92-.37,.55Zm-126.79-3.02l-.64-.27,1.28-3.48,.64,.28-1.28,3.48Zm121.38-.46l-3.11-1.92,.37-.55,3.11,1.92-.37,.55Zm-99.39-.18l-.18-3.66h.64l.18,3.66h-.64Zm-91.43-.73l-.55-3.66,.64-.09,.55,3.67-.64,.09Zm127.7-.09l-2.38-2.84,.55-.46,2.38,2.84-.55,.46Zm57.62-2.38l-3.11-1.92,.37-.55,3.11,1.92-.37,.55Zm-113.69-2.2l-.64-.27,1.28-3.48,.64,.27-1.28,3.48Zm52.03-.37l-2.38-2.84,.55-.46,2.38,2.84-.55,.46Zm-32.61-.64l-.18-3.66h.64l.18,3.66h-.64Zm88.86-.27l-3.11-1.92,.37-.55,3.11,1.92-.37,.55Zm-180.83-.37l-.55-3.66,.64-.09,.55,3.66-.64,.09Zm175.43-3.02l-3.11-2.02,.37-.55,3.11,1.92-.37,.64Zm-54.96-.64l-2.38-2.84,.55-.46,2.38,2.84-.55,.46Zm-45.71-.73l-.64-.27,1.28-3.48,.64,.27-1.28,3.48Zm16.86-1.37l-.18-3.66h.64l.18,3.66h-.64Zm-92.62-.64l-.55-3.67,.64-.09,.55,3.66-.64,.09Zm171.03-.09l-3.11-1.92,.37-.55,3.11,1.92-.37,.55Zm-53.68-2.11l-2.38-2.84,.55-.46,2.38,2.84-.55,.46Zm48.28-1.28l-3.11-1.92,.37-.55,3.11,1.92-.37,.55Zm-87.67-.55l-.64-.27,1.28-3.48,.64,.28-1.28,3.48Zm-78.87-2.29l-.46-3.21,.64-.09,.46,3.21-.64,.09Zm161.14-.64l-3.11-1.92,.37-.55,3.11,1.92-.37,.55Zm-46.99-.09l-2.38-2.84,.55-.46,2.38,2.84-.55,.46Zm-33.07-3.02l-.64-.27,1.28-3.48,.64,.27-1.28,3.48Zm74.66-.27l-3.11-1.92,.37-.55,3.11,1.92-.37,.55Zm-45.62-1.65l-1.47-1.74,.55-.46,1.47,1.74-.55,.46Zm40.22-1.83l-3.11-1.92,.37-.55,3.11,1.92-.37,.55Zm-67.06-2.2l-.64-.27,1.28-3.48,.64,.27-1.28,3.48Zm61.56-1.19l-3.11-1.92,.37-.55,3.11,1.92-.37,.55Zm-5.4-3.48l-3.11-1.92,.37-.55,3.11,1.92-.37,.55Zm-5.4-3.39l-3.11-1.92,.37-.55,3.11,1.92-.37,.55Zm-5.4-3.48l-3.11-1.92,.37-.55,3.11,1.92-.37,.55Zm-5.4-3.39l-3.11-1.92,.18-.27v-.37l3.66-.37,.09,.64-2.66,.27,2.29,1.47-.46,.55Zm3.48-2.57l-.09-.64,3.66-.37,.09,.64-3.66,.37Zm6.41-.64l-.09-.64,3.66-.37,.09,.64-3.66,.37Zm6.32-.64l-.09-.64,3.66-.37,.09,.64-3.66,.37Zm6.41-.55l-.09-.64,3.66-.37,.09,.64-3.67,.37Zm6.41-.64l-.09-.64,3.67-.37,.09,.64-3.66,.37Zm6.32-.64l-.09-.64,3.66-.37,.09,.64-3.66,.37Zm6.41-.64l-.09-.64,3.66-.37,.09,.64-3.66,.37Zm6.41-.64l-.09-.64,3.67-.37,.09,.64-3.66,.37Zm6.32-.64l-.09-.64,3.66-.37,.09,.64-3.66,.37Zm6.41-.64l-.09-.64,3.66-.37,.09,.64-3.66,.37Zm6.41-.64l-.09-.64,3.67-.37,.09,.64-3.66,.37Zm6.32-.64l-.09-.64,3.67-.37,.09,.64-3.66,.37Zm6.41-.64l-.09-.64,3.66-.37,.09,.64-3.66,.37Zm6.41-.64l-.09-.64,3.67-.37,.09,.64-3.66,.37Zm6.32-.55l-.09-.64,3.67-.37,.09,.64-3.66,.37Zm6.41-.64l-.09-.64,3.66-.37,.09,.64-3.66,.37Zm6.41-.64l-.09-.64,3.66-.37,.09,.64-3.67,.37Zm6.32-.64l-.09-.64,3.66-.37,.09,.64-3.66,.37Zm2.38-1.47l-3.21-1.83,.37-.64,3.21,1.83-.37,.64Zm-5.59-3.21l-3.21-1.83,.37-.64,3.21,1.83-.37,.64Zm-5.59-3.11l-3.21-1.83,.37-.64,3.21,1.83-.37,.64Zm-5.59-3.21l-3.21-1.83,.37-.64,3.21,1.83-.37,.64Zm-5.59-3.12l-3.21-1.83,.37-.64,3.21,1.83-.37,.64Zm-5.59-3.21l-3.21-1.83,.37-.64,3.21,1.83-.37,.64Zm-5.59-3.11l-1.92-1.1,.37-.64,1.92,1.1-.37,.64Zm7.51-49.1l-.09-.64,.27-.09,.09,.64-.27,.09Zm3.02-.55l-.09-.64,3.57-.64,.09,.64-3.57,.64Zm6.23-1.19l-.09-.64,3.57-.64,.09,.64-3.57,.64Zm6.32-1.19l-.09-.64,3.57-.64,.09,.64-3.57,.64Zm6.32-1.19l-.09-.64,3.57-.64,.09,.64-3.57,.64Zm6.32-1.19l-.09-.64,3.57-.64,.09,.64-3.57,.64Zm6.32-1.19l-.09-.64,3.57-.64,.09,.64-3.57,.64Zm6.23-1.19l-.09-.64,3.57-.64,.09,.64-3.57,.64Zm6.32-1.19l-.09-.64,3.57-.64,.09,.64-3.57,.64Zm6.32-1.19l-.09-.64,3.57-.64,.09,.64-3.57,.64Zm6.32-1.19l-.09-.64,3.57-.64,.09,.64-3.57,.64Zm6.32-1.19l-.09-.64,2.84-.55v-.18l.37,.09v.64l-3.11,.64Zm-.09-1.28l-3.57-.82,.18-.64,3.57,.83-.18,.64Zm-6.23-1.47l-3.57-.82,.18-.64,3.57,.82-.18,.64Zm-6.23-1.46l-3.57-.82,.18-.64,3.57,.82-.18,.64Zm-6.32-1.37l-3.57-.83,.18-.64,3.57,.82-.18,.64Zm-6.23-1.47l-3.57-.82,.18-.64,3.57,.83-.18,.64Zm-6.23-1.37l-3.57-.83,.18-.64,3.57,.83-.18,.64Zm-6.23-1.47l-3.57-.82,.18-.64,3.57,.83-.18,.64Zm-6.32-1.47l-3.57-.82,.18-.64,3.57,.82-.18,.64Zm-6.23-1.37l-3.57-.82,.18-.64,3.57,.83-.18,.64Zm-6.23-1.47l-3.57-.82,.18-.64,3.57,.82-.18,.64Zm-6.23-1.46l-3.57-.83,.18-.64,3.57,.82-.18,.64Zm-6.32-1.37l-3.57-.83,.18-.64,3.57,.82-.18,.64Zm-6.23-1.47l-3.57-.83,.09-.37-.28-.18,1.56-3.3,.64,.27-1.19,2.57,2.56-1.01,.28,.64-2.38,.92,2.47,.55-.18,.73Zm2.57-3.21l-.27-.64,3.39-1.37,.27,.64-3.39,1.38Zm5.95-2.38l-.27-.64,3.39-1.38,.27,.64-3.39,1.37Zm-8.98-1.19l-.64-.28,1.56-3.3,.64,.27-1.56,3.3Zm15.02-1.19l-.27-.64,3.39-1.37,.27,.64-3.39,1.37Zm5.95-2.38l-.27-.64,3.39-1.37,.27,.64-3.39,1.37Zm-18.23-2.2l-.64-.28,1.56-3.3,.64,.27-1.56,3.3Zm24.18-.18l-.27-.64,3.39-1.37,.28,.64-3.39,1.37Zm5.95-2.29l-.27-.64,3.39-1.37,.27,.64-3.39,1.37Zm5.96-2.38l-.27-.64,3.39-1.37,.27,.64-3.39,1.37Zm-33.35-1.01l-.64-.27,1.56-3.3,.64,.27-1.56,3.3Zm39.3-1.37l-.27-.64,3.39-1.37,.27,.64-3.39,1.38Zm5.95-2.38l-.27-.64,3.39-1.37,.27,.64-3.39,1.37Zm-42.51-2.02l-.64-.27,1.56-3.3,.64,.27-1.56,3.3Zm48.46-.37l-.27-.64,3.39-1.37,.27,.64-3.39,1.37Zm5.96-2.38l-.28-.64,3.39-1.37,.27,.64-3.39,1.37Zm-51.67-3.02l-.64-.27,1.56-3.3,.64,.27-1.56,3.3Zm-29.59-2.57l-.18-.64,3.48-1.19,.18,.64-3.48,1.19Zm-88.04-1.56l-.09-3.67h.73l.09,3.67h-.73Zm94.17-.46l-.18-.64,3.48-1.19,.18,.64-3.48,1.19Zm26.2-1.28l-.64-.28,1.56-3.3,.64,.28-1.56,3.3Zm-20.15-.73l-.18-.64,3.48-1.19,.18,.64-3.48,1.19Zm6.05-2.11l-.18-.64,3.48-1.19,.18,.64-3.48,1.19Zm-106.45-1.83l-.09-3.66h.73l.09,3.66h-.73Zm112.59-.18l-.18-.64,3.48-1.19,.18,.64-3.48,1.19Zm10.63-.92l-.64-.27,1.56-3.3,.64,.28-1.56,3.3Zm-4.58-1.1l-.18-.64,3.48-1.19,.18,.64-3.48,1.19Zm-118.82-4.21l-.09-3.67h.73l.09,3.67h-.73Zm-.18-6.41l-.09-3.66h.73l.09,3.66h-.73Zm-.18-6.41l-.09-3.66h.73l.09,3.66h-.73Zm-69.71-2.2l-.64-.18,.64-2.11,.64,.18-.64,2.11Zm69.53-4.21l-.09-3.66h.73l.09,3.66h-.73Zm57.9,0l-.55-.46,2.38-2.75,.55,.46-2.38,2.75Zm-126.05-.55l-.64-.18,1.01-3.48,.64,.18-1.01,3.48Zm130.27-4.3l-.55-.46,2.38-2.75,.55,.46-2.38,2.75Zm-62.29-1.56l-.09-3.66h.73l.09,3.66h-.73Zm-66.23-.28l-.64-.18,1.01-3.48,.64,.18-1.01,3.48Zm132.74-3.02l-.55-.46,2.38-2.75,.55,.46-2.38,2.75Zm-66.69-3.11l-.09-3.67h.73l.09,3.67h-.73Zm-64.31,0l-.64-.18,1.01-3.48,.64,.18-1.01,3.48Zm135.12-1.74l-.55-.46,2.38-2.75,.55,.46-2.38,2.75Zm-133.38-4.49l-.64-.18,1.01-3.48,.64,.18-1.01,3.48Zm62.39-.18l-.09-3.66h.73l.09,3.66h-.73Zm75.21-.09l-.55-.46,2.38-2.75,.55,.46-2.38,2.75Zm4.21-4.86l-.55-.46,2.38-2.75,.55,.46-2.38,2.75Zm-140.07-1.01l-.64-.18,1.01-3.48,.64,.18-1.01,3.48Zm60.46-.46l-.09-3.67h.73l.09,3.67h-.73Zm83.82-3.39l-.55-.46,2.38-2.75,.55,.46-2.38,2.75Zm-142.54-2.38l-.64-.18,1.01-3.48,.64,.18-1.01,3.48Zm58.54-.64l-.09-3.66h.73l.09,3.66h-.73Zm88.22-1.83l-.55-.46,2.38-2.75,.55,.46-2.38,2.75Zm-145.02-3.66l-.64-.18,1.01-3.48,.64,.18-1.01,3.48Zm56.61-.92l-.09-3.66h.73l.09,3.66h-.73Zm92.62-.27l-.55-.46,2.38-2.75,.55,.46-2.38,2.75Zm4.21-4.76l-.55-.46,2.38-2.75,.55,.46-2.38,2.75Zm-151.7-.18l-.64-.18,1.01-3.48,.64,.18-1.01,3.48Zm54.69-1.19l-.09-3.66h.73l.09,3.66h-.73Zm101.23-3.48l-.55-.46,2.38-2.75,.55,.46-2.38,2.75Zm-154.18-1.56l-.64-.18,1.01-3.48,.64,.18-1.01,3.48Zm52.77-1.37l-.09-3.66h.73l.09,3.66h-.73Zm-51.03-4.76l-.64-.18,.09-.46,.09-.18,2.57-1.92,.37,.55-2.47,1.83v.37Zm50.84-1.65l-.09-3.67h.73l.09,3.67h-.73Zm-46.08-2.2l-.37-.55,2.93-2.2,.37,.55-2.93,2.2Zm5.13-3.85l-.37-.55,2.93-2.2,.37,.55-2.93,2.2Zm40.77-.37l-.09-3.66h.73l.09,3.66h-.73Zm-35.64-3.48l-.37-.55,2.93-2.2,.46,.55-3.02,2.2Zm35.45-2.84l-.09-3.66h.73l.09,3.66h-.73Zm-30.32-.92l-.37-.55,2.93-2.2,.37,.55-2.93,2.2Zm5.13-3.85l-.37-.55,2.93-2.2,.37,.55-2.93,2.2Zm25.01-1.65l-.09-3.67h.73l.09,3.67h-.73Zm-19.88-2.2l-.37-.55,2.93-2.2,.37,.55-2.93,2.2Zm5.13-3.85l-.37-.55,2.93-2.2,.37,.55-2.93,2.2Zm14.57-.37l-.09-3.66h.73l.09,3.66h-.73Zm-9.34-3.48l-.46-.55,2.93-2.2,.46,.55-2.93,2.2Zm9.16-2.93l-.09-3.66h.73l.09,3.66h-.73Zm-4.03-.92l-.37-.55,2.93-2.2,.37,.55-2.93,2.2Z"/><path class="x" d="M964.65,106.87c1.21,0,2.2-.98,2.2-2.2s-.98-2.2-2.2-2.2-2.2,.98-2.2,2.2,.98,2.2,2.2,2.2Z"/><path class="x" d="M774.57,307.04c1.21,0,2.2-.98,2.2-2.2s-.98-2.2-2.2-2.2-2.2,.98-2.2,2.2,.98,2.2,2.2,2.2Z"/><path class="x" d="M1092.27,222.12c1.21,0,2.2-.98,2.2-2.2s-.98-2.2-2.2-2.2-2.2,.98-2.2,2.2,.98,2.2,2.2,2.2Z"/><path class="x" d="M1071.2,147.09c1.21,0,2.2-.98,2.2-2.2s-.98-2.2-2.2-2.2-2.2,.98-2.2,2.2,.98,2.2,2.2,2.2Z"/><path class="x" d="M1074.58,430.71c1.21,0,2.2-.98,2.2-2.2s-.98-2.2-2.2-2.2-2.2,.98-2.2,2.2,.98,2.2,2.2,2.2Z"/><path class="x" d="M910.24,520.57c1.21,0,2.2-.98,2.2-2.2s-.98-2.2-2.2-2.2-2.2,.98-2.2,2.2,.98,2.2,2.2,2.2Z"/><path class="x" d="M970.98,485.58c1.21,0,2.2-.98,2.2-2.2s-.98-2.2-2.2-2.2-2.2,.98-2.2,2.2,.98,2.2,2.2,2.2Z"/><path class="x" d="M1153.37,284.77c1.22,0,2.2-.98,2.2-2.2s-.98-2.2-2.2-2.2-2.2,.98-2.2,2.2,.98,2.2,2.2,2.2Z"/><path class="x" d="M813.78,423.1c1.21,0,2.2-.98,2.2-2.2s-.99-2.2-2.2-2.2-2.2,.99-2.2,2.2,.99,2.2,2.2,2.2Z"/><path class="x" d="M814.42,153.5c1.21,0,2.2-.99,2.2-2.2s-.98-2.2-2.2-2.2-2.2,.98-2.2,2.2,.98,2.2,2.2,2.2Z"/><path class="v" d="M993.24,270.67c.56,0,1.01-.45,1.01-1.01s-.45-1.01-1.01-1.01-1.01,.45-1.01,1.01,.45,1.01,1.01,1.01Z"/><path class="v" d="M988.51,233.01c.56,0,1.01-.45,1.01-1.01s-.45-1.01-1.01-1.01-1.01,.45-1.01,1.01,.45,1.01,1.01,1.01Z"/><path class="v" d="M958.51,219.01c.56,0,1.01-.45,1.01-1.01s-.45-1.01-1.01-1.01-1.01,.45-1.01,1.01,.45,1.01,1.01,1.01Z"/><path class="v" d="M1004.51,216.01c.56,0,1.01-.45,1.01-1.01s-.45-1.01-1.01-1.01-1.01,.45-1.01,1.01,.45,1.01,1.01,1.01Z"/><path class="v" d="M1017.51,208.01c.56,0,1.01-.45,1.01-1.01s-.45-1.01-1.01-1.01-1.01,.45-1.01,1.01,.45,1.01,1.01,1.01Z"/><path class="v" d="M1036.11,255.28c.56,0,1.01-.45,1.01-1.01s-.45-1.01-1.01-1.01-1.01,.45-1.01,1.01,.45,1.01,1.01,1.01Z"/><path class="v" d="M1053.61,233.57c.56,0,1.01-.45,1.01-1.01s-.45-1.01-1.01-1.01-1.01,.45-1.01,1.01,.45,1.01,1.01,1.01Z"/><path class="v" d="M943.68,318.03c.56,0,1.01-.45,1.01-1.01s-.45-1.01-1.01-1.01-1.01,.45-1.01,1.01,.45,1.01,1.01,1.01Z"/><path class="v" d="M974.46,363.01c.56,0,1.01-.45,1.01-1.01s-.45-1.01-1.01-1.01-1.01,.45-1.01,1.01,.45,1.01,1.01,1.01Z"/><path class="v" d="M856.83,358.89c.56,0,1.01-.45,1.01-1.01s-.45-1.01-1.01-1.01-1.01,.45-1.01,1.01,.45,1.01,1.01,1.01Z"/><path class="v" d="M869.2,382.43c.56,0,1.01-.45,1.01-1.01s-.45-1.01-1.01-1.01-1.01,.45-1.01,1.01,.45,1.01,1.01,1.01Z"/><path class="v" d="M1046.19,285.42c.56,0,1.01-.45,1.01-1.01s-.45-1.01-1.01-1.01-1.01,.45-1.01,1.01,.45,1.01,1.01,1.01Z"/><path class="v" d="M1002.58,300.44c.56,0,1.01-.45,1.01-1.01s-.45-1.01-1.01-1.01-1.01,.45-1.01,1.01,.45,1.01,1.01,1.01Z"/><path class="v" d="M991.59,325.72c.56,0,1.01-.45,1.01-1.01s-.45-1.01-1.01-1.01-1.01,.45-1.01,1.01,.45,1.01,1.01,1.01Z"/><path class="l" d="M946.5,625.75c173.28,0,313.75-140.47,313.75-313.75S1119.78-1.75,946.5-1.75s-313.75,140.47-313.75,313.75,140.47,313.75,313.75,313.75Zm0,1.25c173.97,0,315-141.03,315-315S1120.47-3,946.5-3s-315,141.03-315,315,141.03,315,315,315Z"/><path class="r" d="M946.5,559.23c136.54,0,247.23-110.69,247.23-247.23s-110.69-247.23-247.23-247.23-247.23,110.69-247.23,247.23,110.69,247.23,247.23,247.23Zm0,1.25c137.23,0,248.48-111.25,248.48-248.48s-111.25-248.48-248.48-248.48-248.48,111.25-248.48,248.48,111.25,248.48,248.48,248.48Z"/><path class="k" d="M946.5,592.49c154.91,0,280.49-125.58,280.49-280.49S1101.41,31.51,946.5,31.51s-280.49,125.58-280.49,280.49,125.58,280.49,280.49,280.49Zm0,1.25c155.6,0,281.74-126.14,281.74-281.74S1102.1,30.26,946.5,30.26s-281.74,126.14-281.74,281.74,126.14,281.74,281.74,281.74Z"/></g></g></g></g></svg>