<svg xmlns="http://www.w3.org/2000/svg" width="667" height="243" fill="none" viewBox="0 0 667 243">
  <path fill="#fff" fill-rule="evenodd" d="M433.825 81.403h-.109c-13.227 0-23.946-10.829-23.946-24.187s10.719-24.191 23.946-24.191c1.441 0 2.879.13 4.296.39 2.232-17.712 17.204-31.407 35.344-31.407 15.668 0 28.978 10.221 33.747 24.419a21.116 21.116 0 0 1 7.836-1.5c11.77 0 21.313 9.625 21.313 21.526 0 1.92-.253 3.833-.753 5.688a14.798 14.798 0 1 1 3.273 29.258H433.825v.004Z" clip-rule="evenodd"/>
  <path fill="#C5EBF5" d="M433.834 81.42h1.313v-1.312h-1.313v1.312Zm4.174-47.989-.236 1.291 1.365.25.175-1.374-1.304-.166Zm69.091-7-1.243.438.438 1.312 1.286-.516-.481-1.234Zm28.396 25.718-1.269-.341-.573 2.113 2.135-.494-.293-1.278Zm3.041 29.254V80.09h-1.313v1.313h1.313Zm0 0v1.312h1.312v-1.312h-1.312Zm-104.715 0h-1.313v1.312h1.313v-1.312Zm0-1.313h-.105v2.625h.118l-.013-2.625Zm-.105 0c-12.487 0-22.634-10.23-22.634-22.874h-2.625c0 14.07 11.297 25.5 25.259 25.5V80.09Zm-22.634-22.874c0-12.65 10.147-22.879 22.634-22.879v-2.625c-13.962 0-25.259 11.433-25.259 25.504h2.625Zm22.634-22.879c1.362 0 2.721.123 4.06.368l.473-2.582a24.997 24.997 0 0 0-4.533-.411v2.625Zm5.6-.757c2.149-17.063 16.583-30.26 34.04-30.26V.696c-18.814 0-34.333 14.207-36.648 32.557l2.608.328Zm34.04-30.26c15.082 0 27.906 9.836 32.505 23.527l2.485-.836C503.406 11.297 489.615.695 473.343.695l.013 2.626Zm34.233 24.327a19.749 19.749 0 0 1 7.351-1.409v-2.625c-2.848-.003-5.67.54-8.314 1.597l.963 2.437Zm7.351-1.409c11.034 0 19.999 9.036 19.999 20.215h2.625c0-12.601-10.115-22.84-22.624-22.84v2.625Zm19.999 20.215a20.53 20.53 0 0 1-.709 5.35l2.534.683c.532-1.967.801-3.996.8-6.033h-2.625Zm.853 6.97a13.385 13.385 0 0 1 2.98-.337V50.46c-1.202 0-2.4.136-3.57.407l.59 2.555Zm2.98-.337a13.436 13.436 0 0 1 12.368 8.36 13.433 13.433 0 0 1 .994 5.146h2.625a16.057 16.057 0 0 0-15.978-16.127l-.009 2.62Zm13.362 13.506a13.43 13.43 0 0 1-13.353 13.502v2.626a16.058 16.058 0 0 0 15.978-16.128h-2.625Zm-13.353 13.502h-.215l-.039 2.626h.254v-2.626Zm-.232 0H433.834v2.626h104.715v-2.626ZM23.16 153.004h1.189v-1.189H23.16v1.189Zm3.78-43.457-.214 1.169 1.236.225.159-1.244-1.18-.15Zm62.567-6.34-1.126.397.397 1.188 1.164-.467-.435-1.118Zm25.714 23.29-1.149-.309-.519 1.914 1.934-.448-.266-1.157Zm2.754 26.491v-1.189h-1.189v1.189h1.189Zm0 0v1.189h1.189v-1.189h-1.189Zm-94.826 0h-1.19v1.189h1.19v-1.189Zm0-1.189h-.096v2.378h.107l-.012-2.378Zm-.096 0c-11.308 0-20.496-9.263-20.496-20.714H.18c0 12.742 10.23 23.092 22.873 23.092v-2.378ZM2.557 131.085c0-11.454 9.188-20.718 20.496-20.718v-2.377C10.41 107.99.18 118.343.18 131.085h2.377Zm20.496-20.718c1.233 0 2.464.111 3.677.333l.428-2.338a22.604 22.604 0 0 0-4.105-.372v2.377Zm5.072-.685C30.07 94.229 43.142 82.279 58.95 82.279v-2.377c-17.037 0-31.09 12.865-33.187 29.482l2.362.298ZM58.95 82.279c13.658 0 25.271 8.907 29.435 21.305l2.25-.757c-4.471-13.325-16.96-22.925-31.695-22.925l.011 2.377Zm31 22.03a17.877 17.877 0 0 1 6.657-1.276v-2.377a20.2 20.2 0 0 0-7.528 1.446l.871 2.207Zm6.657-1.276c9.993 0 18.111 8.182 18.111 18.305h2.377c0-11.411-9.16-20.682-20.488-20.682v2.377Zm18.111 18.305c0 1.637-.216 3.266-.642 4.846l2.294.618a20.87 20.87 0 0 0 .725-5.464h-2.377Zm.773 6.312c.885-.203 1.79-.305 2.698-.305v-2.377a14.3 14.3 0 0 0-3.233.368l.535 2.314Zm2.698-.305a12.161 12.161 0 0 1 12.1 12.231h2.378a14.544 14.544 0 0 0-14.47-14.604l-.008 2.373Zm12.1 12.231a12.161 12.161 0 0 1-12.092 12.227v2.378a14.54 14.54 0 0 0 14.47-14.605h-2.378Zm-12.092 12.227h-.194l-.036 2.378h.23v-2.378Zm-.21 0H23.16v2.378h94.827v-2.378Z"/>
  <path fill="#fff" stroke="#C5EBF5" stroke-width="2.582" d="M213.724 73.952c0-4.646-1.723-8.479-4.641-11.027-2.7-2.338-6.346-3.507-10.429-3.208a22.338 22.338 0 0 0-7.18-15.377c-4.167-3.932-9.558-6.203-14.395-6.203-9.897 0-19.598 5.989-22.494 15.618-9.032-1.205-18.171 6.131-18.171 16.6a16.852 16.852 0 0 0 5.132 12.133c2.9 2.847 6.586 4.498 9.638 4.498h49.804c3.396 0 6.578-1.624 8.893-4.016a13.228 13.228 0 0 0 3.843-9.018Zm451.101 96.815c0-4.646-1.722-8.479-4.641-11.027-2.699-2.338-6.345-3.507-10.428-3.208a22.341 22.341 0 0 0-7.18-15.377c-4.168-3.932-9.558-6.203-14.395-6.203-9.898 0-19.599 5.989-22.495 15.618-9.032-1.205-18.17 6.131-18.17 16.6a16.836 16.836 0 0 0 5.131 12.133c2.901 2.847 6.587 4.498 9.639 4.498h49.804c3.396 0 6.577-1.624 8.893-4.016a13.222 13.222 0 0 0 3.842-9.018Z"/>
  <path fill="#0055DC" fill-rule="evenodd" d="M139.132 100.541c23.887 6.401 38.067 30.772 31.719 54.466-6.342 23.667-30.835 37.676-54.695 31.283a45.756 45.756 0 0 1-4.499-1.456l2.967-3.944 1.29.429.6-2.237c-.549-.258-.901-.52-.838-.754a78.22 78.22 0 0 0 4.877 1.307c-.063.234-.498.285-1.103.234l-.599 2.237c20.87 4.756 41.904-7.671 47.438-28.322 5.54-20.676-6.463-41.955-26.922-48.246l-.599 2.237c.549.259.9.52.838.754a53.032 53.032 0 0 0-4.877-1.307c.063-.234.498-.284 1.102-.234l.6-2.237c-1.108-.269-2.211-.453-3.321-.611l-.586-4.84a42.28 42.28 0 0 1 6.608 1.241Z" clip-rule="evenodd"/>
  <path fill="#0055DC" fill-rule="evenodd" d="M139.662 202.011c3.006.606 12.747 1.08 13.498 6.088h-50.609c.751-5.008 10.492-5.508 13.497-6.088 5.099-4.902 8.077-9.778 8.936-14.654.939.053 1.905.106 2.871.106s1.932-.027 2.872-.106c.858 4.876 3.837 9.752 8.935 14.654Z" clip-rule="evenodd"/>
  <path fill="#0055DC" fill-rule="evenodd" d="M102.182 208.098h51.342c.245 0 .463.162.463.344v.485h-52.268v-.485c0-.182.218-.344.463-.344Z" clip-rule="evenodd"/>
  <path fill="#fff" d="m92.838 134.193 16.333 4.376c1.68-6.269 4.141-12.153 7.161-16.825l-14.023-3.757c-4.505 4.274-7.747 9.771-9.47 16.206Z"/>
  <path fill="#fff" d="m109.171 138.57-16.333-4.377c-1.68 6.269-1.666 12.816-.067 18.726l14.024 3.757c.067-1.573.015-3.355.082-4.928.446-4.302 1.056-8.559 2.294-13.178Zm-6.865-20.583 14.024 3.757c6.084-9.51 13.924-15.012 20.854-13.156-12.869-3.448-25.944.475-34.878 9.399Z"/>
  <path fill="#fff" d="m107.003 156.554-14.024-3.757c3.32 12.029 12.638 22.129 25.671 25.622-6.973-1.692-11.221-10.257-11.647-21.865Z"/>
  <path fill="#E2F5FA" d="m109.17 138.569 18.808 5.039 4.686-17.488-16.168-4.332c-3.02 4.672-5.602 10.346-7.326 16.781Z"/>
  <path fill="#E2F5FA" d="m127.977 143.607-18.808-5.039c-1.194 4.454-2.058 8.997-2.294 13.178-.112 1.738-.059 3.521-.082 4.929l16.333 4.376 4.686-17.488.165.044Z"/>
  <path fill="#E2F5FA" d="m123.336 160.931-16.168-4.333c.514 11.278 4.553 19.964 11.482 21.821l4.686-17.488Z"/>
  <path fill="#E2F5FA" stroke="#0055DC" stroke-width="2.582" d="M137.348 108.632c-6.93-1.857-14.77 3.646-20.854 13.156l16.168 4.332 4.686-17.488Z"/>
  <path fill="#C5EBF5" d="m123.336 160.932-4.686 17.488c6.929 1.857 14.769-3.646 20.854-13.156l-16.168-4.332Z"/>
  <path fill="#C5EBF5" d="m127.978 143.609-4.686 17.488 16.168 4.332c3.021-4.672 5.481-10.555 7.161-16.825l-18.643-4.995Zm4.687-17.489-4.686 17.488 18.808 5.04c1.68-6.27 2.49-12.595 2.211-18.151l-16.333-4.377Z"/>
  <path fill="#C5EBF5" d="m137.351 108.633-4.686 17.488 16.169 4.332c-.471-11.443-4.553-19.964-11.483-21.82Z"/>
  <path fill="#6ECCE5" d="M137.348 108.633c6.929 1.857 10.967 10.542 11.482 21.82l14.023 3.758c-3.11-12.151-12.637-22.13-25.505-25.578Zm2.155 56.63c-6.085 9.51-13.925 15.013-20.854 13.156 13.033 3.492 26.153-.596 35.042-9.354l-14.188-3.802Zm0 0 14.024 3.757c4.505-4.274 7.625-9.981 9.305-16.25l-16.333-4.376c-1.603 6.643-4.02 12.361-6.996 16.869Z"/>
  <path fill="#6ECCE5" d="m162.852 134.21-14.023-3.758c.279 5.557-.531 11.882-2.211 18.151l16.333 4.377c1.724-6.435 1.665-12.816-.099-18.77Z"/>
  <path stroke="#0055DC" stroke-miterlimit="10" stroke-width="2.582" d="M92.836 134.192c-1.68 6.27-1.665 12.816-.066 18.726 3.32 12.03 12.637 22.13 25.671 25.622 13.033 3.493 26.153-.596 35.042-9.354 4.505-4.274 7.626-9.981 9.305-16.25 1.68-6.269 1.666-12.816.067-18.726-3.32-12.029-12.637-22.13-25.671-25.622-13.033-3.492-26.153.596-35.042 9.354-4.34 4.319-7.582 9.816-9.306 16.25Z"/>
  <path stroke="#0055DC" stroke-miterlimit="10" stroke-width="2.582" d="M107.042 151.791c-.112 1.738-.059 3.521-.083 4.929.515 11.278 4.553 19.964 11.483 21.82 6.929 1.857 14.769-3.646 20.854-13.156 3.02-4.672 5.48-10.555 7.16-16.824 1.68-6.27 2.491-12.595 2.212-18.152-.515-11.278-4.554-19.963-11.483-21.82-6.929-1.857-14.769 3.646-20.854 13.156-3.02 4.672-5.481 10.556-7.16 16.825-1.238 4.619-1.848 8.876-2.129 13.222Z"/>
  <path stroke="#0055DC" stroke-miterlimit="10" stroke-width="2.582" d="m162.953 152.979-16.333-4.376-18.643-4.995-18.808-5.04-16.333-4.376"/>
  <path stroke="#0055DC" stroke-miterlimit="10" stroke-width="2.582" d="m137.348 108.632-4.686 17.488-4.686 17.488-4.642 17.323-4.686 17.488"/>
  <path stroke="#0055DC" stroke-miterlimit="10" stroke-width="2.582" d="m162.855 134.21-14.023-3.758-16.168-4.332-16.333-4.376-14.024-3.758m51.22 51.035-14.023-3.757-16.168-4.332-16.333-4.377-14.024-3.757"/>
  <path fill="#E2F5FA" stroke="#99DBED" stroke-width="2.582" d="m369.947 122.738.001.005c.098 2.939-.813 6.411-2.327 10.045-1.505 3.614-3.563 7.284-5.651 10.585a119.943 119.943 0 0 1-8.015 11.141h-42.211a109.814 109.814 0 0 1-2.246-2.859 119.943 119.943 0 0 1-5.769-8.282c-2.089-3.301-4.146-6.971-5.651-10.585-1.514-3.633-2.425-7.106-2.327-10.044.118-3.496 1.536-12.078 3.639-23.126 2.093-10.995 4.84-24.306 7.572-37.171a4344.561 4344.561 0 0 1 7.484-34.474 4556.34 4556.34 0 0 1 2.455-11.037l.687-3.061.016-.07h30.491l.016.07.689 3.062a4017.33 4017.33 0 0 1 2.461 11.037 4194.434 4194.434 0 0 1 7.498 34.473c2.737 12.865 5.485 26.176 7.575 37.17 2.101 11.049 3.51 19.629 3.613 23.121Z" opacity=".66"/>
  <path fill="#FBAD41" d="M334.286 141.024c.122 4.764-.611 9.04-2.81 11.605-.794.916-1.771 1.588-2.993 2.077-.855.305-1.771.427-2.626.427-20.523-.366 8.856-8.795-11.544-25.531-7.086-5.741-26.387-17.285-5.742-38.541 8.124-8.368 24.188-7.024 26.692.366 3.665 10.934-1.038 17.591-2.504 23.943-3.176 13.865 1.527 23.272 1.527 25.654Z"/>
  <path fill="#F63" d="M319.747 66.385a6.602 6.602 0 0 1-.978-1.222c-8.062-13.193-7.39-32.066 9.895-45.443 1.222-1.1 5.986-1.954 8.49-.733.122.061.184.122.306.122 21.927 8.551 2.26 30.051-8.002 45.443-2.382 3.604-6.902 4.52-9.711 1.894.061 0 0-.061 0-.061Z"/>
  <path fill="#FBAD41" d="M358.96 108.714c.244.305.489.611.733.977 6.047 10.506 5.558 24.31-7.391 32.494-.916.672-4.459.855-6.352-.244a.462.462 0 0 0-.244-.122c-16.37-8.429-1.711-22.355 5.924-32.678 1.772-2.382 5.192-2.626 7.208-.488.061 0 .122 0 .122.061Z"/>
  <path fill="#FD8639" d="M347.355 56.734c5.436 1.038 7.39 7.94 7.452 8.063 1.099 8.368-1.1 9.895-10.995 19.973-6.78 6.902-8.429 14.598-13.01 17.713-5.924 4.092-15.758 3.787-12.032-5.131 1.405-3.726 16.919-11.972 18.018-15.697 1.222-4.276-7.085-5.864-4.092-17.225.794-3.176 6.108-9.345 14.659-7.696Zm7.763 48.253c-2.077.183-5.742-2.626-5.864-2.749-2.993-2.687-2.076-6.78 2.016-8.856 1.221-.55 3.665-1.222 4.52-.672 2.993 1.71 1.527 4.703 2.809 7.085.245.428 1.161 4.826-3.481 5.192Z"/>
  <path fill="#C5EBF5" stroke="#0055DC" stroke-width="2.582" d="M346.007 13.805h2.457l3.062 13.115h-37.18l3.062-13.115h28.599Zm23.301 193.543H296.69l4.791-12.73.004-.01.004-.011 12.339-34.571.204-.571-.31-.522-7.799-13.136h54.152l-7.799 13.136-.31.522.204.571 12.339 34.571.003.011.004.01 4.792 12.73Z"/>
  <path fill="#C5EBF5" stroke="#0055DC" stroke-width="2.582" d="m362.394 145.431-9.121 14.886h-40.488l-9.121-14.886h58.73Z"/>
  <path fill="#C5EBF5" d="M488.038 35.981h-3.308v7.441h3.308v-7.441Zm9.095 9.095h-7.442v3.307h7.442v-3.307Zm-9.095 4.96h-3.308v7.441h3.308v-7.44Zm-4.96-4.96h-7.441v3.307h7.441v-3.307Z"/>
  <path fill="#FBAD41" d="M112.082 55.132h-3.418v7.69h3.418v-7.69Zm9.401 9.398h-7.69v3.419h7.69V64.53Zm-9.401 5.128h-3.418v7.69h3.418v-7.69Zm-5.126-5.128h-7.69v3.419h7.69V64.53Zm516.614 37.718h-3.418v7.69h3.418v-7.69Zm9.402 9.399h-7.691v3.418h7.691v-3.418Zm-9.402 5.127h-3.418v7.691h3.418v-7.691Zm-5.126-5.127h-7.69v3.418h7.69v-3.418Z"/>
  <mask id="a" fill="#fff">
    <path fill-rule="evenodd" d="M519.082 206.159c-3.944-9.088-2.759-19.863 3.868-27.339a22.957 22.957 0 0 1 6.818-5.278c3.944 9.088 2.759 19.862-3.868 27.338a22.977 22.977 0 0 1-6.818 5.279Z" clip-rule="evenodd"/>
  </mask>
  <path fill="#6ECCE5" fill-rule="evenodd" d="M519.082 206.159c-3.944-9.088-2.759-19.863 3.868-27.339a22.957 22.957 0 0 1 6.818-5.278c3.944 9.088 2.759 19.862-3.868 27.338a22.977 22.977 0 0 1-6.818 5.279Z" clip-rule="evenodd"/>
  <path fill="#0055DC" d="m519.082 206.159-2.304 1.078 1.075 2.477 2.342-1.186-1.113-2.369Zm10.686-32.617 2.304-1.079-1.075-2.477-2.342 1.187 1.113 2.369Zm-8.381 31.539c-3.565-8.212-2.456-17.838 3.424-24.471l-3.722-3.58c-7.374 8.319-8.636 20.242-4.311 30.207l4.609-2.156Zm3.424-24.471a20.448 20.448 0 0 1 6.069-4.7l-2.225-4.737a25.498 25.498 0 0 0-7.566 5.857l3.722 3.58Zm2.652-5.99c3.565 8.211 2.456 17.837-3.424 24.471l3.722 3.579c7.374-8.319 8.636-20.242 4.311-30.207l-4.609 2.157Zm-3.424 24.471a20.444 20.444 0 0 1-6.069 4.699l2.225 4.738a25.502 25.502 0 0 0 7.566-5.858l-3.722-3.579Z" mask="url(#a)"/>
  <mask id="b" fill="#fff">
    <path fill-rule="evenodd" d="M515.504 208.314c4.985-8.54 14.944-13.563 25.862-11.996a28.572 28.572 0 0 1 9.185 2.969c-4.985 8.539-14.943 13.562-25.861 11.995a28.568 28.568 0 0 1-9.186-2.968Z" clip-rule="evenodd"/>
  </mask>
  <path fill="#6ECCE5" fill-rule="evenodd" d="M515.504 208.314c4.985-8.54 14.944-13.563 25.862-11.996a28.572 28.572 0 0 1 9.185 2.969c-4.985 8.539-14.943 13.562-25.861 11.995a28.568 28.568 0 0 1-9.186-2.968Z" clip-rule="evenodd"/>
  <path fill="#0055DC" d="m515.504 208.314-2.227-1.408-1.388 2.378 2.534 1.325 1.081-2.295Zm35.047-9.027 2.227 1.407 1.388-2.378-2.534-1.325-1.081 2.296Zm-32.82 10.434c4.489-7.689 13.489-12.254 23.406-10.831l.457-5.143c-11.919-1.711-22.835 3.769-28.317 13.159l4.454 2.815Zm23.406-10.831a25.923 25.923 0 0 1 8.334 2.692l2.161-4.591a31.229 31.229 0 0 0-10.038-3.244l-.457 5.143Zm7.188-1.011c-4.489 7.689-13.49 12.255-23.407 10.831l-.457 5.144c11.919 1.711 22.835-3.769 28.317-13.16l-4.453-2.815Zm-23.407 10.831a25.908 25.908 0 0 1-8.333-2.691l-2.162 4.59a31.238 31.238 0 0 0 10.038 3.245l.457-5.144Z" mask="url(#b)"/>
  <path fill="#C5EBF5" stroke="#0055DC" stroke-width="2.582" d="M257.518 57.097h-33.761v110.254h33.761V57.097Z"/>
  <path fill="#fff" d="M240.317 147.947c4.818 0 8.718-3.947 8.718-8.719v-34.323c0-4.818-3.946-8.719-8.718-8.719-4.818 0-8.719 3.947-8.719 8.719v34.323c-.046 4.772 3.901 8.719 8.719 8.719Z"/>
  <path fill="#E2F5FA" stroke="#0055DC" stroke-width="2.582" d="m223.175 84.337-29.987-6.37-17.767 83.892 30.036 6.333 17.718-83.855Z"/>
  <path fill="#0055DC" d="m190.863 82.282 32.68 6.919-.425 2.008-32.68-6.919.425-2.008Zm-15.138 72.348 32.048 6.785-.416 1.967-32.049-6.785.417-1.967Z"/>
  <path fill="#fff" d="M194.482 145.879c-7.079-1.498-10.839-12.059-8.398-23.587 2.44-11.528 10.157-19.659 17.236-18.16 7.078 1.498 10.838 12.059 8.398 23.587-2.441 11.528-10.158 19.659-17.236 18.16Z"/>
  <path fill="#0055DC" d="M220.41 113.826h24.108v42.957H220.41z"/>
  <path stroke="#0055DC" stroke-miterlimit="10" stroke-width="2.582" d="M249.289 55.378c0-9.725-10.001-10.947-10.001 30.506 0 24.685-1.514 28.808-5.578 29.221-4.741.505-5.936-1.97-5.936-37.249 0-30.004 7.928-26.24 7.889-22.478"/>
  <path fill="#0055DC" d="m194.277 117.178-.582-1.43c4.123-1.697 10.162-.593 13.46 2.461l-1.033 1.138c-2.914-2.681-8.22-3.651-11.845-2.169Z"/>
  <path fill="#0055DC" d="M200.366 117.49a11.854 11.854 0 0 1 8.578 6.784l-1.43.583a10.433 10.433 0 0 0-7.426-5.846c-4.56-.834-7.997 1.467-9.183 2.798l-1.148-1.023c1.377-1.559 5.376-4.252 10.609-3.296Z"/>
  <path fill="#0055DC" d="M199.936 119.838c3.006.55 5.298 2.316 6.45 4.974a9.712 9.712 0 0 1-.809 9.002l-1.301-.834a8.16 8.16 0 0 0 .694-7.555 6.93 6.93 0 0 0-5.312-4.067c-5.287-.966-7.505 3.11-7.913 4.763-.476 1.939.602 2.376.811 2.438l.118.045a2.346 2.346 0 0 0 1.692.046c.484-.222.851-.724 1.085-1.49.64-2.102 2.456-2.693 3.847-2.352 1.53.374 2.966 1.928 2.502 4.467-.669 3.66-4.567 5.991-7.781 6.039l-.032-1.545c2.272-.028 5.731-1.698 6.293-4.772.285-1.562-.471-2.474-1.347-2.685-.688-.169-1.631.071-2.005 1.298-.374 1.228-1.026 2.044-1.941 2.454a3.865 3.865 0 0 1-2.889-.03c-.968-.291-2.532-1.531-1.855-4.266.507-2.064 3.232-7.111 9.693-5.93Z"/>
  <path fill="#0055DC" d="M202.893 127.609c-.257-2.073-1.477-3.502-3.286-3.833-4.252-.777-5.253 2.826-5.458 3.947l-1.52-.278c.532-2.907 2.749-6.013 7.256-5.189 2.474.453 4.213 2.436 4.556 5.153a8.21 8.21 0 0 1-4.777 8.388l-.625-1.415a6.647 6.647 0 0 0 3.854-6.773Z"/>
  <path fill="#0055DC" d="M196.101 130.672a4.259 4.259 0 0 0 1.814-2.94l1.52.278a5.832 5.832 0 0 1-2.486 3.948 7.129 7.129 0 0 1-5.171.877l-.414-.076.35-1.507c1.643.379 3.244.169 4.387-.58Z"/>
  <path fill="#fff" d="M233.59 135.462h-2.896a6.34 6.34 0 0 0-6.335 6.332l.599.598h14.362l.599-.598a6.342 6.342 0 0 0-6.329-6.332Zm-7.998 5.733a5.146 5.146 0 0 1 5.102-4.536h2.896a5.141 5.141 0 0 1 5.087 4.536h-13.085Zm6.562-6.558a4.192 4.192 0 0 0 3.87-2.586 4.186 4.186 0 0 0-.908-4.565 4.19 4.19 0 0 0-4.565-.908 4.184 4.184 0 0 0-2.586 3.87 4.188 4.188 0 0 0 4.189 4.189Zm0-7.181a2.988 2.988 0 0 1 2.764 1.847 2.992 2.992 0 1 1-2.764-1.847Z"/>
  <mask id="c" fill="#fff">
    <path fill-rule="evenodd" d="M98.84 199.776c5.397-10.832 4.645-24.051-2.959-33.598a28.065 28.065 0 0 0-7.978-6.879c-5.398 10.833-4.646 24.052 2.958 33.599a28.048 28.048 0 0 0 7.978 6.878Z" clip-rule="evenodd"/>
  </mask>
  <path fill="#6ECCE5" fill-rule="evenodd" d="M98.84 199.776c5.397-10.832 4.645-24.051-2.959-33.598a28.065 28.065 0 0 0-7.978-6.879c-5.398 10.833-4.646 24.052 2.958 33.599a28.048 28.048 0 0 0 7.978 6.878Z" clip-rule="evenodd"/>
  <path fill="#0055DC" d="m98.84 199.776 2.244 1.199-1.204 2.416-2.276-1.308 1.236-2.307Zm-10.937-40.477-2.245-1.198 1.205-2.416 2.275 1.307-1.235 2.307Zm8.692 39.279c4.972-9.977 4.235-22.045-2.666-30.711l3.905-3.378c8.305 10.427 9.073 24.798 3.25 36.486l-4.489-2.397Zm-2.666-30.711a25.54 25.54 0 0 0-7.262-6.261l2.471-4.614a30.592 30.592 0 0 1 8.696 7.497l-3.905 3.378Zm-3.782-7.37c-4.971 9.977-4.235 22.046 2.667 30.711l-3.906 3.379c-8.305-10.428-9.073-24.798-3.25-36.486l4.489 2.396Zm2.667 30.711a25.508 25.508 0 0 0 7.261 6.261l-2.471 4.614a30.587 30.587 0 0 1-8.696-7.496l3.906-3.379Z" mask="url(#c)"/>
  <mask id="d" fill="#fff">
    <path fill-rule="evenodd" d="M115.931 203.521c-9.718-7.175-23.317-8.002-34.81-.972a34.902 34.902 0 0 0-8.873 7.765c9.718 7.175 23.317 8.002 34.81.971a34.878 34.878 0 0 0 8.873-7.764Z" clip-rule="evenodd"/>
  </mask>
  <path fill="#6ECCE5" fill-rule="evenodd" d="M115.931 203.521c-9.718-7.175-23.317-8.002-34.81-.972a34.902 34.902 0 0 0-8.873 7.765c9.718 7.175 23.317 8.002 34.81.971a34.878 34.878 0 0 0 8.873-7.764Z" clip-rule="evenodd"/>
  <path fill="#0055DC" d="m115.931 203.521 1.489-2.173 2.215 1.635-1.804 2.219-1.9-1.681Zm-43.683 6.793-1.489 2.173-2.215-1.636 1.804-2.218 1.9 1.681Zm42.193-4.62c-8.925-6.59-21.463-7.376-32.094-.873l-2.453-4.544c12.356-7.558 27.016-6.689 37.526 1.071l-2.979 4.346Zm-32.094-.873a32.258 32.258 0 0 0-8.199 7.174l-3.8-3.362a37.545 37.545 0 0 1 9.546-8.356l2.453 4.544Zm-8.61 3.32c8.925 6.59 21.464 7.375 32.095.872l2.452 4.544c-12.356 7.559-27.015 6.69-37.525-1.07l2.978-4.346Zm32.095.872a32.228 32.228 0 0 0 8.198-7.173l3.801 3.362a37.56 37.56 0 0 1-9.547 8.355l-2.452-4.544Z" mask="url(#d)"/>
  <mask id="e" fill="#fff">
    <path fill-rule="evenodd" d="M56.33 188.531c7.178 7.815 17.69 10.754 26.967 6.528 2.788-1.27 5.232-3.081 7.283-5.292-7.177-7.815-17.689-10.755-26.966-6.529-2.79 1.27-5.232 3.081-7.283 5.293Z" clip-rule="evenodd"/>
  </mask>
  <path fill="#6ECCE5" fill-rule="evenodd" d="M56.33 188.531c7.178 7.815 17.69 10.754 26.967 6.528 2.788-1.27 5.232-3.081 7.283-5.292-7.177-7.815-17.689-10.755-26.966-6.529-2.79 1.27-5.232 3.081-7.283 5.293Z" clip-rule="evenodd"/>
  <path fill="#0055DC" d="m56.33 188.531-1.858 1.865-1.648-1.794 1.728-1.864 1.779 1.793Zm34.25 1.236 1.858-1.866 1.648 1.795-1.727 1.863-1.78-1.792Zm-32.39-3.102c6.617 7.206 16.062 9.682 24.18 5.985l1.854 4.819c-10.438 4.753-22.015 1.351-29.752-7.073l3.717-3.731Zm24.18 5.985c2.458-1.12 4.614-2.717 6.43-4.675l3.559 3.584c-2.286 2.464-5.016 4.49-8.135 5.91l-1.855-4.819Zm6.351-1.018c-6.618-7.206-16.063-9.682-24.18-5.985l-1.854-4.819c10.437-4.753 22.015-1.351 29.751 7.073l-3.717 3.731Zm-24.18-5.985c-2.459 1.12-4.615 2.717-6.431 4.676l-3.558-3.585c2.285-2.464 5.016-4.489 8.135-5.91l1.854 4.819Z" mask="url(#e)"/>
  <path stroke="#0055DC" stroke-linecap="square" stroke-linejoin="round" stroke-width="2.582" d="M75.81 175.295s6.349 9.632 17.628 18c11.635 8.632 27.98 8.307 35.048 12.388l.045.026"/>
  <path fill="#6ECCE5" fill-rule="evenodd" d="M61.626 149.908c-2.19 9.027.309 17.996 7.086 22.505a16.373 16.373 0 0 0 6.644 2.552c2.189-9.027-.31-17.997-7.087-22.505a16.358 16.358 0 0 0-6.643-2.552Z" clip-rule="evenodd"/>
  <path fill="#0055DC" d="m61.626 149.908-1.25-.311.278-1.147 1.16.177-.188 1.281Zm13.73 25.057 1.25.31-.278 1.147-1.16-.176.188-1.281Zm-12.48-24.747c-2.1 8.662.348 16.993 6.543 21.115l-1.414 2.16c-7.36-4.896-9.906-14.504-7.63-23.896l2.5.621Zm6.543 21.115a15.083 15.083 0 0 0 6.126 2.351l-.378 2.562a17.662 17.662 0 0 1-7.162-2.753l1.414-2.16Zm4.687 3.321c2.1-8.662-.349-16.993-6.544-21.114l1.414-2.16c7.36 4.895 9.907 14.503 7.63 23.895l-2.5-.621Zm-6.544-21.114a15.068 15.068 0 0 0-6.125-2.351l.377-2.562a17.633 17.633 0 0 1 7.162 2.753l-1.414 2.16Z"/>
  <mask id="f" fill="#fff">
    <path fill-rule="evenodd" d="M392.988 114.384c-11.95-1.915-22.262-10.22-25.6-21.959a28.059 28.059 0 0 1-.95-10.492c11.949 1.916 22.261 10.221 25.599 21.96a28.036 28.036 0 0 1 .951 10.491Z" clip-rule="evenodd"/>
  </mask>
  <path fill="#6ECCE5" fill-rule="evenodd" d="M392.988 114.384c-11.95-1.915-22.262-10.22-25.6-21.959a28.059 28.059 0 0 1-.95-10.492c11.949 1.916 22.261 10.221 25.599 21.96a28.036 28.036 0 0 1 .951 10.491Z" clip-rule="evenodd"/>
  <path fill="#0055DC" d="m392.988 114.384-.332 2.522 2.666.428.261-2.612-2.595-.338Zm-26.55-32.45.331-2.523-2.665-.427-.261 2.612 2.595.337Zm26.882 29.928c-11.006-1.764-20.392-9.387-23.422-20.042l-5.02 1.21c3.646 12.822 14.885 21.81 27.778 23.876l.664-5.044ZM369.898 91.82a25.524 25.524 0 0 1-.865-9.549l-5.19-.675a30.573 30.573 0 0 0 1.035 11.434l5.02-1.21Zm-3.792-7.364c11.006 1.764 20.391 9.386 23.421 20.042l5.02-1.21c-3.646-12.822-14.884-21.81-27.778-23.877l-.663 5.045Zm23.421 20.042a25.523 25.523 0 0 1 .866 9.548l5.19.676a30.591 30.591 0 0 0-1.036-11.434l-5.02 1.21Z" mask="url(#f)"/>
  <mask id="g" fill="#fff">
    <path fill-rule="evenodd" d="M386.084 130.461c-.179-12.078 7.063-23.617 19.469-28.872a34.892 34.892 0 0 1 11.479-2.696c.179 12.078-7.063 23.617-19.469 28.872a34.892 34.892 0 0 1-11.479 2.696Z" clip-rule="evenodd"/>
  </mask>
  <path fill="#6ECCE5" fill-rule="evenodd" d="M386.084 130.461c-.179-12.078 7.063-23.617 19.469-28.872a34.892 34.892 0 0 1 11.479-2.696c.179 12.078-7.063 23.617-19.469 28.872a34.892 34.892 0 0 1-11.479 2.696Z" clip-rule="evenodd"/>
  <path fill="#0055DC" d="m386.084 130.461-2.634-.054.041 2.753 2.854-.175-.261-2.524Zm30.948-31.568 2.634.054-.041-2.753-2.854.176.261 2.523Zm-28.315 31.622c-.164-11.093 6.495-21.746 17.969-26.606l-2.267-4.64c-13.337 5.65-21.162 18.076-20.969 31.138l5.267.108Zm17.969-26.606a32.218 32.218 0 0 1 10.607-2.492l-.522-5.047a37.55 37.55 0 0 0-12.352 2.9l2.267 4.639Zm7.713-5.07c.164 11.093-6.495 21.746-17.97 26.606l2.268 4.639c13.337-5.649 21.162-18.075 20.969-31.137l-5.267-.108Zm-17.97 26.606a32.206 32.206 0 0 1-10.606 2.492l.522 5.048a37.56 37.56 0 0 0 12.352-2.901l-2.268-4.639Z" mask="url(#g)"/>
  <mask id="h" fill="#fff">
    <path fill-rule="evenodd" d="M408.584 73.267c2.178 10.385-1.549 20.643-10.385 25.729-2.655 1.528-5.549 2.461-8.541 2.842-2.178-10.385 1.549-20.644 10.385-25.73 2.655-1.528 5.549-2.46 8.541-2.841Z" clip-rule="evenodd"/>
  </mask>
  <path fill="#6ECCE5" fill-rule="evenodd" d="M408.584 73.267c2.178 10.385-1.549 20.643-10.385 25.729-2.655 1.528-5.549 2.461-8.541 2.842-2.178-10.385 1.549-20.644 10.385-25.73 2.655-1.528 5.549-2.46 8.541-2.841Z" clip-rule="evenodd"/>
  <path fill="#0055DC" d="m408.584 73.267 2.598-.426-.5-2.385-2.52.321.422 2.49Zm-18.926 28.571-2.599.425.501 2.385 2.52-.321-.422-2.489Zm16.327-28.146c2.009 9.576-1.475 18.698-9.206 23.147l2.84 4.313c9.94-5.721 13.912-17.117 11.563-28.31l-5.197.85Zm-9.206 23.147c-2.341 1.348-4.893 2.172-7.543 2.51l.844 4.978c3.334-.424 6.569-1.466 9.539-3.175l-2.84-4.313Zm-4.522 4.573c-2.009-9.576 1.475-18.697 9.205-23.147l-2.839-4.313c-9.941 5.722-13.912 17.117-11.564 28.311l5.198-.851Zm9.205-23.147c2.342-1.347 4.894-2.171 7.544-2.509l-.844-4.979c-3.334.424-6.57 1.466-9.539 3.175l2.839 4.313Z" mask="url(#h)"/>
  <path stroke="#0055DC" stroke-linecap="square" stroke-linejoin="round" stroke-width="2.582" d="M386.483 81.408s4.138 10.768 4.378 24.811c.249 14.485-9.529 27.588-10.324 35.71l-.005.052"/>
  <path fill="#6ECCE5" fill-rule="evenodd" d="M374.094 55.098c8.615 3.473 14.456 10.725 14.179 18.86a16.372 16.372 0 0 1-1.792 6.89c-8.616-3.474-14.457-10.726-14.179-18.862a16.372 16.372 0 0 1 1.792-6.888Z" clip-rule="evenodd"/>
  <path fill="#0055DC" d="m374.094 55.098.475-1.198-1.095-.44-.531 1.045 1.151.593Zm12.387 25.75-.475 1.197 1.094.44.532-1.046-1.151-.591Zm-12.862-24.553c8.267 3.333 13.618 10.173 13.364 17.61l2.579.107c.302-8.834-6.029-16.498-14.993-20.112l-.95 2.395Zm13.364 17.61a15.074 15.074 0 0 1-1.654 6.35l2.303 1.184a17.64 17.64 0 0 0 1.93-7.427l-2.579-.107Zm-.028 5.745c-8.267-3.333-13.617-10.173-13.363-17.61l-2.58-.107c-.302 8.834 6.03 16.498 14.994 20.112l.949-2.395Zm-13.363-17.61a15.089 15.089 0 0 1 1.653-6.35l-2.302-1.184a17.642 17.642 0 0 0-1.931 7.427l2.58.107Z"/>
  <path fill="#C5EBF5" stroke="#0055DC" stroke-miterlimit="10" stroke-width="1.291" d="M587.684 208.683c-1.661-.105-40.76-2.967-55.035-36.721l-12.194-28.835 7.692-4.631c12.853-7.717 17.598-19.992 17.83-20.566l3.715-10.889 10.498 4.926c.057.023 12.329 5.435 27.118 1.51l8.681-2.292 12.194 28.834c14.275 33.754-10.908 63.801-11.99 65.066l-3.37 3.945-5.139-.347Z"/>
  <path fill="#fff" stroke="#E2F5FA" stroke-width="6.885" d="m557.103 124.631.039-.093.075.03c.479.192 1.151.445 1.997.726a50.626 50.626 0 0 0 7.037 1.766c5.74 1.022 13.626 1.47 22.389-.745l7.868 18.606c5.37 12.696 3.233 24.869-.513 34.203-3.404 8.478-8.045 14.362-9.128 15.673-1.695-.136-9.149-.905-17.603-4.369-9.306-3.814-19.528-10.761-24.898-23.457l-7.868-18.606c7.678-4.739 12.836-10.716 16.097-15.548a51.896 51.896 0 0 0 3.636-6.273c.389-.8.676-1.451.872-1.913Z"/>
  <path stroke="#FBAD41" stroke-width="2.582" d="m549.91 106.949 12.822 30.319m18.112 42.821 12.161 28.757m-.161-59.625 16.253-6.873m-75.64 31.987 16.254-6.873"/>
  <path stroke="#0055DC" stroke-miterlimit="10" stroke-width="2.582" d="M587.688 208.682c-1.661-.105-40.76-2.967-55.035-36.721l-12.194-28.834 7.692-4.632c12.853-7.717 17.598-19.992 17.83-20.566l3.715-10.889 10.498 4.926c.057.023 12.329 5.435 27.118 1.51l8.681-2.292 12.194 28.834c14.275 33.755-10.908 63.801-11.99 65.066l-3.371 3.945-5.138-.347Z"/>
  <circle cx="571.411" cy="158.654" r="22.126" stroke="#FBAD41" stroke-width="2.582" transform="rotate(-22.923 571.411 158.654)"/>
  <path fill="#F6821F" d="m571.363 164.444 7.045-17.011 3.114 1.254-8.362 20.137-11.611-4.836 1.402-3.056 8.412 3.512Z"/>
  <path fill="#C5EBF5" stroke="#0055DC" stroke-miterlimit="10" stroke-width="2.582" d="M498.374 101.452h-10.788v25.781h10.788v-25.781Z"/>
  <path fill="#0055DC" stroke="#0055DC" stroke-miterlimit="10" stroke-width="2.582" d="m443.411 94.26-82.313 48.557v4.217l63.244-36.57 22.12 36.57h49.864l4.15-17.385 32.051 17.385v-4.196L443.411 94.26Z"/>
  <path fill="#fff" stroke="#0055DC" stroke-miterlimit="10" stroke-width="2.582" d="m443.983 98.456-68.499 40.508v69.195h142.677v-69.195l-74.178-40.508Z"/>
  <path fill="#C5EBF5" d="m443.983 98.456-68.499 40.281v13.971l71.041-10.491h41.497l30.139 9.89v-13.37l-74.178-40.28Z"/>
  <path fill="#fff" d="m443.983 108.048-68.499 40.282v8.286h142.677v-8.276l-74.178-40.292Z"/>
  <path fill="#C5EBF5" stroke="#0055DC" stroke-miterlimit="10" stroke-width="2.582" d="M502.575 94.86H483.41v6.592h19.165V94.86Z"/>
  <path fill="#C5EBF5" stroke="#0055DC" stroke-width="2.582" d="M441.586 191.219v-40.453h58.432v40.453h-58.432Z"/>
  <path stroke="#0055DC" stroke-width="2.582" d="M455.969 191.219v-40.453h29.655v40.453h-29.655Z"/>
  <path stroke="#0055DC" stroke-miterlimit="10" stroke-width="2.582" d="m443.983 98.456-68.499 40.508v69.195h142.677v-69.195l-74.178-40.508Z"/>
  <path fill="#0055DC" d="M407.879 147.034a12.565 12.565 0 0 1 8.897 3.698 12.566 12.566 0 0 1 3.666 8.91v48.512h-25.176v-48.512c0-3.344 1.328-6.551 3.693-8.915a12.604 12.604 0 0 1 8.915-3.693h.005Z"/>
  <path stroke="#0055DC" stroke-miterlimit="10" stroke-width="2.582" d="M407.879 147.034a12.565 12.565 0 0 1 8.897 3.698 12.566 12.566 0 0 1 3.666 8.91v48.512h-25.176v-48.512a12.607 12.607 0 0 1 12.613-12.608Z"/>
  <path fill="#C5EBF5" d="M414.452 182.983a2.408 2.408 0 0 1 2.395 2.396 2.412 2.412 0 0 1-2.395 2.4 2.408 2.408 0 0 1-2.401-2.4 2.363 2.363 0 0 1 .697-1.702 2.384 2.384 0 0 1 1.704-.694Z"/>
  <path fill="#6ECCE5" stroke="#0055DC" stroke-width="2.582" d="M271.721 69.277h-14.633v98.059h14.633v-98.06Z"/>
  <path fill="#0055DC" d="M255.797 67.986h17.215v1.52h-17.215v-1.52Z"/>
  <path fill="#C5EBF5" stroke="#0055DC" stroke-width="2.582" d="M293.158 105.25h-21.231v62.086h21.231V105.25Z"/>
  <path fill="#F8FBFB" d="M282.151 151.864c3.157 0 5.712-2.262 5.712-4.997v-19.672c0-2.761-2.585-4.996-5.712-4.996-3.157 0-5.713 2.261-5.713 4.996v19.672c-.03 2.735 2.556 4.997 5.713 4.997Z"/>
  <path fill="#0055DC" d="M270.628 155.423h23.813v2.765h-23.813v-2.765Zm.182-41.126h22.94v2.582h-22.94v-2.582Z"/>
  <path fill="#0055DC" d="M282.079 116.406c3.041 0 5.503-.091 5.503-.2v-.785c0-.111-2.491-.2-5.503-.2-3.042 0-5.504.09-5.504.2v.785c-.029.109 2.462.2 5.504.2Z"/>
  <path fill="#C5EBF5" d="M258.762 85.036h11.188v13.77h-11.188zm0 49.055h11.188v14.63h-11.188z"/>
  <ellipse cx="614.271" cy="177.838" fill="#C5EBF5" stroke="#fff" stroke-width="2.582" rx="18.715" ry="18.397" transform="rotate(-1.75 614.271 177.838)"/>
  <path fill="#6ECCE5" stroke="#fff" stroke-width="2.582" d="m602.208 220.804-1.048-34.326 27.079-.827 1.048 34.326-13.946-12.897-13.133 13.724Z"/>
  <path fill="#6ECCE5" stroke="#0055DC" stroke-width="2.582" d="m602.208 220.804-1.048-34.326 27.079-.827 1.048 34.326-13.946-12.897-13.133 13.724Z"/>
  <ellipse cx="614.271" cy="177.838" fill="#C5EBF5" stroke="#0055DC" stroke-width="2.582" rx="18.715" ry="18.397" transform="rotate(-1.75 614.271 177.838)"/>
  <path fill="#6ECCE5" stroke="#fff" stroke-width="2.582" d="M637.087 177.077c.048 1.579-3.547 2.846-3.843 4.334-.306 1.537 2.526 4.042 1.893 5.439-.643 1.419-4.439 1.027-5.377 2.257-.943 1.237.504 4.709-.693 5.711-1.192.997-4.437-.969-5.838-.252-1.378.707-1.603 4.457-3.142 4.851-1.492.382-3.54-2.776-5.144-2.727-1.605.049-3.457 3.326-4.968 3.036-1.561-.299-2.014-4.029-3.433-4.65-1.442-.632-4.561 1.529-5.811.607-1.257-.926-.024-4.48-1.041-5.658-1.012-1.172-4.776-.548-5.505-1.926-.716-1.355 1.957-4.029 1.558-5.543-.386-1.468-4.052-2.513-4.1-4.092-.048-1.579 3.547-2.847 3.843-4.335.306-1.536-2.526-4.041-1.893-5.438.643-1.42 4.438-1.028 5.377-2.258.943-1.237-.504-4.709.693-5.71 1.194-.997 4.437.969 5.838.251 1.377-.706 1.603-4.457 3.142-4.851 1.491-.382 3.539 2.777 5.144 2.728 1.605-.049 3.456-3.327 4.968-3.036 1.561.299 2.014 4.029 3.433 4.65 1.442.632 4.561-1.528 5.811-.607 1.257.926.024 4.48 1.041 5.658 1.011 1.173 4.776.548 5.504 1.925.717 1.356-1.956 4.029-1.557 5.543.386 1.469 4.052 2.515 4.1 4.093Z"/>
  <path fill="#6ECCE5" stroke="#0055DC" stroke-width="2.582" d="M637.087 177.077c.048 1.579-3.547 2.846-3.843 4.334-.306 1.537 2.526 4.042 1.893 5.439-.643 1.419-4.439 1.027-5.377 2.257-.943 1.237.504 4.709-.693 5.711-1.192.997-4.437-.969-5.838-.252-1.378.707-1.603 4.457-3.142 4.851-1.492.382-3.54-2.776-5.144-2.727-1.605.049-3.457 3.326-4.968 3.036-1.561-.299-2.014-4.029-3.433-4.65-1.442-.632-4.561 1.529-5.811.607-1.257-.926-.024-4.48-1.041-5.658-1.012-1.172-4.776-.548-5.505-1.926-.716-1.355 1.957-4.029 1.558-5.543-.386-1.468-4.052-2.513-4.1-4.092-.048-1.579 3.547-2.847 3.843-4.335.306-1.536-2.526-4.041-1.893-5.438.643-1.42 4.438-1.028 5.377-2.258.943-1.237-.504-4.709.693-5.71 1.194-.997 4.437.969 5.838.251 1.377-.706 1.603-4.457 3.142-4.851 1.491-.382 3.539 2.777 5.144 2.728 1.605-.049 3.456-3.327 4.968-3.036 1.561.299 2.014 4.029 3.433 4.65 1.442.632 4.561-1.528 5.811-.607 1.257.926.024 4.48 1.041 5.658 1.011 1.173 4.776.548 5.504 1.925.717 1.356-1.956 4.029-1.557 5.543.386 1.469 4.052 2.515 4.1 4.093Z"/>
  <ellipse cx="614.281" cy="178.188" fill="#C5EBF5" rx="15.863" ry="15.594" transform="rotate(-1.75 614.281 178.188)"/>
  <ellipse cx="614.107" cy="178.369" fill="#fff" rx="11.407" ry="11.213" transform="rotate(-1.75 614.107 178.369)"/>
  <path fill="#6ECCE5" stroke="#0055DC" stroke-linecap="round" stroke-linejoin="round" stroke-width="2.582" d="M524.938 60.055h37.867v25.996h-3.783v9.29l-7.994-9.29h-26.09V60.055Z"/>
  <path fill="#C5EBF5" d="M541.981 58.524h-26.774v19.55h26.774v-19.55Z"/>
  <path stroke="#0055DC" stroke-linecap="round" stroke-linejoin="round" stroke-width="2.582" d="M543.009 52.643a.343.343 0 0 0-.077-.22.247.247 0 0 0-.187-.09h-39.306a.25.25 0 0 0-.186.091.342.342 0 0 0-.077.22v25.752c0 .082.028.16.077.22a.244.244 0 0 0 .186.09h4.133v9.461a.337.337 0 0 0 .046.177c.03.053.073.093.123.115.05.023.105.027.157.012a.264.264 0 0 0 .135-.096l7.27-9.669h27.442c.07 0 .137-.032.187-.09a.343.343 0 0 0 .077-.22V52.642Z"/>
  <path fill="#C5EBF5" d="m582.352 90.897 5.861-5.861 5.861 5.861-5.86 5.861z"/>
  <path fill="#fff" stroke="#0055DC" stroke-miterlimit="10" stroke-width="2.582" d="m181.175 195.69.001 10.988 110.247-.007v-10.988l-110.248.007Z"/>
  <path fill="#C5EBF5" stroke="#0055DC" stroke-miterlimit="10" stroke-width="2.582" d="M298.181 166.795H174.418v32.569h123.763v-32.569Z"/>
  <path fill="#fff" d="M291.668 192.85v-19.541H180.933v19.541h110.735Z"/>
  <path fill="#C5EBF5" d="M187.504 178.437h9.812v9.812h-9.812zm16.351 0h9.812v9.812h-9.812zm16.352 0h9.812v9.812h-9.812zm16.355 0h9.812v9.812h-9.812z"/>
  <path fill="#6ECCE5" stroke="#0055DC" stroke-width="2.582" d="M254.205 179.727h28.491v7.23h-28.491v-7.23Z"/>
  <path fill="#0055DC" d="M340.376 186.015a10.51 10.51 0 0 0-6.619 4.694 10.507 10.507 0 0 0-1.608 6.14l-14.053 3.208-1.433-6.28-3.68.841 1.433 6.276-3.404.777-2.106-9.229-3.681.841 2.105 9.227-1.997.456.838 3.682 26.822-6.118a10.513 10.513 0 0 0 4.099 4.8 10.539 10.539 0 0 0 8.001 1.361 10.618 10.618 0 0 0 7.98-12.698 10.616 10.616 0 0 0-12.697-7.978Zm9.025 8.828a6.822 6.822 0 0 1-.881 5.151 6.822 6.822 0 0 1-6.924 3.103 6.778 6.778 0 0 1-2.49-.955 6.781 6.781 0 0 1-3.023-4.262 6.786 6.786 0 0 1 .878-5.154 6.796 6.796 0 0 1 4.263-3.027 6.844 6.844 0 0 1 8.169 5.135l.008.009Z"/>
  <mask id="i" fill="#fff">
    <path fill-rule="evenodd" d="M375.856 209.423c.656-9.981-4.847-19.83-14.886-24.698a28.912 28.912 0 0 0-9.38-2.713c-.657 9.981 4.846 19.83 14.886 24.698a28.898 28.898 0 0 0 9.38 2.713Z" clip-rule="evenodd"/>
  </mask>
  <path fill="#6ECCE5" fill-rule="evenodd" d="M375.856 209.423c.656-9.981-4.847-19.83-14.886-24.698a28.912 28.912 0 0 0-9.38-2.713c-.657 9.981 4.846 19.83 14.886 24.698a28.898 28.898 0 0 0 9.38 2.713Z" clip-rule="evenodd"/>
  <path fill="#0055DC" d="m375.856 209.423 2.633.08-.181 2.747-2.842-.32.39-2.507Zm-24.266-27.411-2.633-.08.18-2.748 2.842.321-.389 2.507Zm21.633 27.33c.591-8.998-4.374-17.931-13.504-22.358l2.501-4.518c10.949 5.309 16.99 16.073 16.269 27.037l-5.266-.161Zm-13.504-22.358a26.221 26.221 0 0 0-8.519-2.465l.779-5.014a31.539 31.539 0 0 1 10.241 2.961l-2.501 4.518Zm-5.496-4.892c-.592 8.998 4.374 17.932 13.503 22.359l-2.501 4.518c-10.949-5.31-16.99-16.073-16.268-27.037l5.266.16Zm13.503 22.359a26.246 26.246 0 0 0 8.519 2.465l-.779 5.014a31.588 31.588 0 0 1-10.241-2.961l2.501-4.518Z" mask="url(#i)"/>
  <mask id="j" fill="#fff">
    <path fill-rule="evenodd" d="M176.62 205.888c3.075-9.418.884-20.034-6.415-26.856a22.978 22.978 0 0 0-7.281-4.615c-3.075 9.418-.885 20.034 6.415 26.856a22.978 22.978 0 0 0 7.281 4.615Z" clip-rule="evenodd"/>
  </mask>
  <path fill="#6ECCE5" fill-rule="evenodd" d="M176.62 205.888c3.075-9.418.884-20.034-6.415-26.856a22.978 22.978 0 0 0-7.281-4.615c-3.075 9.418-.885 20.034 6.415 26.856a22.978 22.978 0 0 0 7.281 4.615Z" clip-rule="evenodd"/>
  <path fill="#0055DC" d="m176.62 205.888 2.395.857-.838 2.567-2.443-.962.886-2.462Zm-13.696-31.471-2.395-.857.838-2.567 2.443.961-.886 2.463Zm11.301 30.614c2.778-8.51.771-17.99-5.705-24.042l3.37-3.913c8.122 7.591 10.496 19.343 7.125 29.669l-4.79-1.714Zm-5.705-24.042a20.42 20.42 0 0 0-6.482-4.109l1.772-4.926a25.5 25.5 0 0 1 8.08 5.122l-3.37 3.913Zm-3.201-5.715c-2.778 8.51-.772 17.99 5.705 24.042l-3.37 3.913c-8.122-7.591-10.497-19.343-7.125-29.669l4.79 1.714Zm5.705 24.042a20.426 20.426 0 0 0 6.481 4.109l-1.771 4.925a25.496 25.496 0 0 1-8.08-5.121l3.37-3.913Z" mask="url(#j)"/>
  <mask id="k" fill="#fff">
    <path fill-rule="evenodd" d="M180.391 207.697c-5.764-8.035-16.15-12.102-26.873-9.517a28.564 28.564 0 0 0-8.866 3.815c5.765 8.035 16.15 12.102 26.874 9.518a28.574 28.574 0 0 0 8.865-3.816Z" clip-rule="evenodd"/>
  </mask>
  <path fill="#6ECCE5" fill-rule="evenodd" d="M180.391 207.697c-5.764-8.035-16.15-12.102-26.873-9.517a28.564 28.564 0 0 0-8.866 3.815c5.765 8.035 16.15 12.102 26.874 9.518a28.574 28.574 0 0 0 8.865-3.816Z" clip-rule="evenodd"/>
  <path fill="#0055DC" d="m180.391 207.697 2.085-1.609 1.605 2.237-2.399 1.556-1.291-2.184Zm-35.739-5.702-2.085 1.61-1.605-2.237 2.399-1.557 1.291 2.184Zm33.654 7.312c-5.19-7.235-14.58-10.936-24.32-8.588l-.937-5.078c11.706-2.822 23.088 1.611 29.427 10.447l-4.17 3.219Zm-24.32-8.588a25.87 25.87 0 0 0-8.042 3.46l-2.583-4.368a31.226 31.226 0 0 1 9.688-4.17l.937 5.078Zm-7.249-.334c5.19 7.235 14.58 10.936 24.32 8.589l.937 5.078c-11.706 2.821-23.088-1.611-29.427-10.447l4.17-3.22Zm24.32 8.589a25.934 25.934 0 0 0 8.043-3.46l2.582 4.367a31.204 31.204 0 0 1-9.688 4.171l-.937-5.078Z" mask="url(#k)"/>
</svg>
